<svg width="850" height="351" viewBox="0 0 850 351" fill="none" xmlns="http://www.w3.org/2000/svg">
<path fill-rule="evenodd" clip-rule="evenodd" d="M293.186 161.357L305.914 174.085C306.695 174.866 306.695 176.133 305.914 176.914L293.186 189.642C292.405 190.423 291.139 190.423 290.358 189.642C289.577 188.86 289.577 187.594 290.358 186.813L299.672 177.499H266.5V173.499H299.672L290.358 164.186C289.577 163.405 289.577 162.138 290.358 161.357C291.139 160.576 292.405 160.576 293.186 161.357Z" fill="black"/>
<path fill-rule="evenodd" clip-rule="evenodd" d="M572.186 161.357L584.914 174.085C585.695 174.866 585.695 176.133 584.914 176.914L572.186 189.642C571.405 190.423 570.139 190.423 569.358 189.642C568.577 188.86 568.577 187.594 569.358 186.813L578.672 177.499H545.5V173.499H578.672L569.358 164.186C568.577 163.405 568.577 162.138 569.358 161.357C570.139 160.576 571.405 160.576 572.186 161.357Z" fill="black"/>
</svg>
