<svg width="850" height="351" viewBox="0 0 850 351" fill="none" xmlns="http://www.w3.org/2000/svg">
<path d="M169.867 168.996H171.715V171.993H174.293V173.54H171.715V180.093C171.715 181.457 172.23 182.037 173.433 182.037C173.766 182.037 173.949 182.026 174.293 181.994V183.552C173.928 183.616 173.573 183.659 173.208 183.659C170.823 183.659 169.867 182.778 169.867 180.565V173.54H167.998V171.993H169.867V168.996Z" fill="black"/>
<path d="M156.466 183.573V171.993H158.228V173.819H158.399C158.98 172.541 160.107 171.789 161.88 171.789C164.48 171.789 165.93 173.325 165.93 176.075V183.573H164.082V176.526C164.082 174.442 163.201 173.454 161.354 173.454C159.506 173.454 158.314 174.689 158.314 176.72V183.573H156.466Z" fill="black"/>
<path d="M148.737 173.422C146.889 173.422 145.6 174.775 145.46 176.827H151.841C151.798 174.775 150.574 173.422 148.737 173.422ZM151.787 180.576H153.635C153.077 182.563 151.293 183.777 148.758 183.777C145.546 183.777 143.537 181.457 143.537 177.794C143.537 174.152 145.578 171.789 148.758 171.789C151.884 171.789 153.786 174.013 153.786 177.611V178.32H145.46V178.406C145.557 180.694 146.835 182.145 148.801 182.145C150.294 182.145 151.304 181.597 151.787 180.576Z" fill="black"/>
<path d="M138.966 183.573V171.993H140.814V183.573H138.966ZM139.89 169.641C139.181 169.641 138.601 169.061 138.601 168.352C138.601 167.643 139.181 167.062 139.89 167.062C140.599 167.062 141.179 167.643 141.179 168.352C141.179 169.061 140.599 169.641 139.89 169.641Z" fill="black"/>
<path d="M133.708 183.572V167.395H135.556V183.572H133.708Z" fill="black"/>
<path d="M124.55 183.938C120.339 183.938 117.707 180.823 117.707 175.828C117.707 170.822 120.328 167.707 124.539 167.707C127.805 167.707 130.351 169.759 130.813 172.745H128.847C128.331 170.747 126.677 169.49 124.539 169.49C121.564 169.49 119.695 171.939 119.695 175.828C119.695 179.717 121.564 182.155 124.55 182.155C126.709 182.155 128.353 181.049 128.847 179.255H130.813C130.297 182.102 127.848 183.938 124.55 183.938Z" fill="black"/>
<path d="M435.616 200.653V189.073H437.378V190.899H437.55C438.076 189.61 439.236 188.869 440.783 188.869C442.352 188.869 443.447 189.696 443.984 190.899H444.156C444.779 189.675 446.101 188.869 447.701 188.869C450.065 188.869 451.386 190.223 451.386 192.65V200.653H449.538V193.08C449.538 191.372 448.733 190.534 447.1 190.534C445.488 190.534 444.414 191.737 444.414 193.209V200.653H442.567V192.79C442.567 191.415 441.61 190.534 440.15 190.534C438.635 190.534 437.464 191.845 437.464 193.478V200.653H435.616Z" fill="black"/>
<path d="M427.264 199.235C429.165 199.235 430.573 197.989 430.573 196.335V195.271L427.457 195.476C425.696 195.594 424.922 196.206 424.922 197.366C424.922 198.548 425.921 199.235 427.264 199.235ZM426.92 200.857C424.675 200.857 423.01 199.525 423.01 197.409C423.01 195.336 424.536 194.144 427.232 193.982L430.573 193.778V192.726C430.573 191.297 429.681 190.513 427.952 190.513C426.566 190.513 425.599 191.039 425.341 191.952H423.472C423.719 190.094 425.545 188.869 428.016 188.869C430.841 188.869 432.42 190.319 432.42 192.726V200.653H430.659V198.945H430.487C429.735 200.181 428.467 200.857 426.92 200.857Z" fill="black"/>
<path d="M415.968 190.502C414.121 190.502 412.832 191.855 412.692 193.907H419.073C419.03 191.855 417.805 190.502 415.968 190.502ZM419.019 197.656H420.867C420.308 199.644 418.525 200.857 415.99 200.857C412.778 200.857 410.769 198.537 410.769 194.874C410.769 191.232 412.81 188.869 415.99 188.869C419.116 188.869 421.017 191.093 421.017 194.691V195.4H412.692V195.486C412.789 197.774 414.067 199.225 416.033 199.225C417.526 199.225 418.536 198.677 419.019 197.656Z" fill="black"/>
<path d="M405.543 200.653H403.609V186.893H398.614V185.152H410.538V186.893H405.543V200.653Z" fill="black"/>
<path d="M446.305 166.653V155.073H448.152V166.653H446.305ZM447.229 152.721C446.52 152.721 445.94 152.141 445.94 151.432C445.94 150.723 446.52 150.143 447.229 150.143C447.938 150.143 448.518 150.723 448.518 151.432C448.518 152.141 447.938 152.721 447.229 152.721Z" fill="black"/>
<path d="M427.339 166.653V155.073H429.101V156.899H429.273C429.799 155.61 430.959 154.869 432.506 154.869C434.075 154.869 435.17 155.696 435.707 156.899H435.879C436.502 155.675 437.824 154.869 439.424 154.869C441.787 154.869 443.109 156.223 443.109 158.65V166.653H441.261V159.08C441.261 157.372 440.455 156.534 438.823 156.534C437.211 156.534 436.137 157.737 436.137 159.209V166.653H434.289V158.79C434.289 157.415 433.333 156.534 431.872 156.534C430.358 156.534 429.187 157.845 429.187 159.478V166.653H427.339Z" fill="black"/>
<path d="M424.079 155.074V166.654H422.317V164.839H422.145C421.565 166.128 420.33 166.858 418.557 166.858C415.958 166.858 414.604 165.312 414.604 162.572V155.074H416.452V162.121C416.452 164.205 417.225 165.172 419.073 165.172C421.114 165.172 422.231 163.958 422.231 161.928V155.074H424.079Z" fill="black"/>
<path d="M412.074 164.913V166.653H402.664V151.152H404.598V164.913H412.074Z" fill="black"/>
<path d="M739.055 181.821V170.241H740.817V171.96H740.989C741.333 170.832 742.665 170.037 744.201 170.037C744.501 170.037 744.888 170.059 745.125 170.091V171.938C744.974 171.896 744.308 171.831 743.943 171.831C742.181 171.831 740.903 173.013 740.903 174.646V181.821H739.055Z" fill="black"/>
<path d="M731.326 171.67C729.478 171.67 728.189 173.023 728.05 175.075H734.43C734.388 173.023 733.163 171.67 731.326 171.67ZM734.377 178.824H736.224C735.666 180.812 733.883 182.025 731.347 182.025C728.136 182.025 726.127 179.705 726.127 176.042C726.127 172.4 728.168 170.037 731.347 170.037C734.473 170.037 736.375 172.261 736.375 175.859V176.568H728.05V176.654C728.146 178.942 729.425 180.393 731.39 180.393C732.884 180.393 733.893 179.845 734.377 178.824Z" fill="black"/>
<path d="M721.556 181.821V170.241H723.403V181.821H721.556ZM722.48 167.889C721.771 167.889 721.191 167.309 721.191 166.6C721.191 165.891 721.771 165.311 722.48 165.311C723.189 165.311 723.769 165.891 723.769 166.6C723.769 167.309 723.189 167.889 722.48 167.889Z" fill="black"/>
<path d="M716.297 181.822V165.645H718.145V181.822H716.297Z" fill="black"/>
<path d="M708.643 170.037C711.597 170.037 713.509 172.39 713.509 176.031C713.509 179.651 711.587 182.025 708.643 182.025C706.989 182.025 705.657 181.306 705.023 180.081H704.851V185.688H703.004V170.241H704.765V172.175H704.937C705.678 170.843 707.064 170.037 708.643 170.037ZM708.203 180.36C710.33 180.36 711.597 178.738 711.597 176.031C711.597 173.324 710.33 171.702 708.214 171.702C706.119 171.702 704.798 173.367 704.798 176.031C704.798 178.685 706.119 180.36 708.203 180.36Z" fill="black"/>
<path d="M695.457 170.037C698.411 170.037 700.323 172.39 700.323 176.031C700.323 179.651 698.4 182.025 695.457 182.025C693.803 182.025 692.471 181.306 691.837 180.081H691.665V185.688H689.817V170.241H691.579V172.175H691.751C692.492 170.843 693.878 170.037 695.457 170.037ZM695.017 180.36C697.143 180.36 698.411 178.738 698.411 176.031C698.411 173.324 697.143 171.702 695.027 171.702C692.933 171.702 691.611 173.367 691.611 176.031C691.611 178.685 692.933 180.36 695.017 180.36Z" fill="black"/>
<path d="M686.557 170.242V181.822H684.795V180.007H684.623C684.043 181.296 682.808 182.026 681.035 182.026C678.436 182.026 677.082 180.479 677.082 177.74V170.242H678.93V177.289C678.93 179.373 679.703 180.34 681.551 180.34C683.592 180.34 684.709 179.126 684.709 177.096V170.242H686.557Z" fill="black"/>
<path d="M662.875 177.771H664.831C665.067 179.394 666.614 180.425 668.816 180.425C670.9 180.425 672.436 179.297 672.436 177.761C672.436 176.439 671.469 175.602 669.332 175.064L667.344 174.549C664.541 173.84 663.327 172.572 663.327 170.37C663.327 167.738 665.529 165.955 668.805 165.955C671.802 165.955 674.037 167.738 674.198 170.241H672.253C671.985 168.651 670.674 167.706 668.741 167.706C666.678 167.706 665.314 168.737 665.314 170.306C665.314 171.52 666.163 172.218 668.3 172.766L669.922 173.195C673.134 174.001 674.423 175.247 674.423 177.524C674.423 180.371 672.178 182.187 668.633 182.187C665.346 182.187 663.08 180.446 662.875 177.771Z" fill="black"/>
</svg>
