<svg width="903" height="371" viewBox="0 0 903 371" fill="none" xmlns="http://www.w3.org/2000/svg">
<rect width="850" height="351" transform="translate(0 0.638672)" fill="white" fill-opacity="0.018"/>
<g filter="url(#filter0_dddddd_1325_3183)">
<rect x="58.5" y="88.6387" width="175" height="175" rx="87.5" fill="white" fill-opacity="0.105882" shape-rendering="crispEdges"/>
<path d="M124.711 184.504C120.5 184.504 117.868 181.389 117.868 176.394C117.868 171.388 120.489 168.272 124.7 168.272C127.966 168.272 130.512 170.324 130.974 173.311H129.008C128.492 171.312 126.838 170.056 124.7 170.056C121.725 170.056 119.856 172.505 119.856 176.394C119.856 180.282 121.725 182.721 124.711 182.721C126.87 182.721 128.514 181.614 129.008 179.82H130.974C130.458 182.667 128.009 184.504 124.711 184.504ZM133.869 184.139V167.961H135.717V184.139H133.869ZM139.128 184.139V172.559H140.975V184.139H139.128ZM140.051 170.206C139.342 170.206 138.762 169.626 138.762 168.917C138.762 168.208 139.342 167.628 140.051 167.628C140.76 167.628 141.34 168.208 141.34 168.917C141.34 169.626 140.76 170.206 140.051 170.206ZM148.898 173.987C147.05 173.987 145.761 175.341 145.621 177.393H152.002C151.959 175.341 150.735 173.987 148.898 173.987ZM151.949 181.142H153.796C153.238 183.129 151.454 184.343 148.919 184.343C145.707 184.343 143.699 182.022 143.699 178.359C143.699 174.718 145.74 172.354 148.919 172.354C152.045 172.354 153.947 174.578 153.947 178.177V178.886H145.621V178.972C145.718 181.26 146.996 182.71 148.962 182.71C150.455 182.71 151.465 182.162 151.949 181.142ZM156.627 184.139V172.559H158.389V174.385H158.561C159.141 173.106 160.269 172.354 162.041 172.354C164.641 172.354 166.091 173.891 166.091 176.641V184.139H164.243V177.092C164.243 175.008 163.362 174.02 161.515 174.02C159.667 174.02 158.475 175.255 158.475 177.285V184.139H156.627ZM170.028 169.562H171.876V172.559H174.454V174.105H171.876V180.658C171.876 182.022 172.391 182.603 173.595 182.603C173.928 182.603 174.11 182.592 174.454 182.56V184.117C174.089 184.182 173.734 184.225 173.369 184.225C170.984 184.225 170.028 183.344 170.028 181.131V174.105H168.159V172.559H170.028V169.562Z" fill="white"/>
</g>
<path d="M305.914 177.553C306.695 176.772 306.695 175.506 305.914 174.724L293.186 161.997C292.405 161.215 291.139 161.215 290.358 161.997C289.577 162.778 289.577 164.044 290.358 164.825L301.672 176.139L290.358 187.452C289.577 188.233 289.577 189.5 290.358 190.281C291.139 191.062 292.405 191.062 293.186 190.281L305.914 177.553ZM266.5 178.139H304.5V174.139H266.5V178.139Z" fill="white" fill-opacity="0.447059"/>
<g filter="url(#filter1_dddddd_1325_3183)">
<rect x="337.5" y="88.6387" width="175" height="175" rx="12" fill="white" fill-opacity="0.105882" shape-rendering="crispEdges"/>
<path d="M411.763 165.398V167.139H402.352V151.638H404.286V165.398H411.763ZM423.767 155.559V167.139H422.006V165.323H421.834C421.254 166.612 420.018 167.343 418.246 167.343C415.646 167.343 414.293 165.796 414.293 163.057V155.559H416.14V162.605C416.14 164.689 416.914 165.656 418.761 165.656C420.802 165.656 421.92 164.442 421.92 162.412V155.559H423.767ZM427.028 167.139V155.559H428.789V157.385H428.961C429.488 156.096 430.648 155.354 432.195 155.354C433.763 155.354 434.859 156.182 435.396 157.385H435.568C436.191 156.16 437.512 155.354 439.113 155.354C441.476 155.354 442.797 156.708 442.797 159.136V167.139H440.95V159.565C440.95 157.857 440.144 157.02 438.511 157.02C436.9 157.02 435.826 158.223 435.826 159.694V167.139H433.978V159.275C433.978 157.9 433.022 157.02 431.561 157.02C430.046 157.02 428.875 158.33 428.875 159.963V167.139H427.028ZM445.993 167.139V155.559H447.841V167.139H445.993ZM446.917 153.206C446.208 153.206 445.628 152.626 445.628 151.917C445.628 151.208 446.208 150.628 446.917 150.628C447.626 150.628 448.206 151.208 448.206 151.917C448.206 152.626 447.626 153.206 446.917 153.206ZM405.231 201.139H403.298V187.378H398.303V185.638H410.226V187.378H405.231V201.139ZM415.657 190.987C413.809 190.987 412.52 192.341 412.381 194.393H418.761C418.718 192.341 417.494 190.987 415.657 190.987ZM418.708 198.142H420.555C419.997 200.129 418.214 201.343 415.678 201.343C412.466 201.343 410.458 199.022 410.458 195.359C410.458 191.718 412.499 189.354 415.678 189.354C418.804 189.354 420.706 191.578 420.706 195.177V195.886H412.381V195.972C412.477 198.26 413.756 199.71 415.721 199.71C417.214 199.71 418.224 199.162 418.708 198.142ZM426.952 199.721C428.854 199.721 430.261 198.475 430.261 196.82V195.757L427.146 195.961C425.384 196.079 424.611 196.691 424.611 197.852C424.611 199.033 425.61 199.721 426.952 199.721ZM426.609 201.343C424.364 201.343 422.699 200.011 422.699 197.895C422.699 195.821 424.224 194.629 426.92 194.468L430.261 194.264V193.211C430.261 191.782 429.369 190.998 427.64 190.998C426.254 190.998 425.287 191.524 425.03 192.438H423.161C423.408 190.579 425.234 189.354 427.704 189.354C430.53 189.354 432.109 190.805 432.109 193.211V201.139H430.347V199.431H430.175C429.423 200.666 428.156 201.343 426.609 201.343ZM435.305 201.139V189.559H437.066V191.385H437.238C437.765 190.096 438.925 189.354 440.472 189.354C442.04 189.354 443.136 190.182 443.673 191.385H443.845C444.468 190.16 445.789 189.354 447.39 189.354C449.753 189.354 451.074 190.708 451.074 193.136V201.139H449.227V193.565C449.227 191.857 448.421 191.02 446.788 191.02C445.177 191.02 444.103 192.223 444.103 193.694V201.139H442.255V193.275C442.255 191.9 441.299 191.02 439.838 191.02C438.323 191.02 437.152 192.33 437.152 193.963V201.139H435.305Z" fill="white"/>
</g>
<path d="M584.914 177.553C585.695 176.772 585.695 175.506 584.914 174.724L572.186 161.997C571.405 161.215 570.139 161.215 569.358 161.997C568.577 162.778 568.577 164.044 569.358 164.825L580.672 176.139L569.358 187.452C568.577 188.233 568.577 189.5 569.358 190.281C570.139 191.062 571.405 191.062 572.186 190.281L584.914 177.553ZM545.5 178.139H583.5V174.139H545.5V178.139Z" fill="white" fill-opacity="0.447059"/>
<g filter="url(#filter2_dddddd_1325_3183)">
<rect x="616.5" y="88.6387" width="175" height="175" rx="87.5" fill="white" fill-opacity="0.105882" shape-rendering="crispEdges"/>
<path d="M663.208 180.089H665.164C665.4 181.711 666.947 182.742 669.149 182.742C671.233 182.742 672.769 181.614 672.769 180.078C672.769 178.757 671.802 177.919 669.665 177.382L667.677 176.866C664.874 176.157 663.66 174.89 663.66 172.688C663.66 170.056 665.862 168.272 669.138 168.272C672.135 168.272 674.37 170.056 674.531 172.559H672.586C672.318 170.969 671.007 170.023 669.074 170.023C667.011 170.023 665.647 171.055 665.647 172.623C665.647 173.837 666.496 174.535 668.633 175.083L670.255 175.513C673.467 176.318 674.756 177.564 674.756 179.842C674.756 182.688 672.511 184.504 668.966 184.504C665.679 184.504 663.413 182.764 663.208 180.089ZM686.89 172.559V184.139H685.128V182.323H684.956C684.376 183.612 683.141 184.343 681.368 184.343C678.769 184.343 677.415 182.796 677.415 180.057V172.559H679.263V179.605C679.263 181.689 680.036 182.656 681.884 182.656C683.925 182.656 685.042 181.442 685.042 179.412V172.559H686.89ZM695.79 172.354C698.744 172.354 700.656 174.707 700.656 178.349C700.656 181.969 698.733 184.343 695.79 184.343C694.136 184.343 692.804 183.623 692.17 182.398H691.998V188.006H690.15V172.559H691.912V174.492H692.084C692.825 173.16 694.211 172.354 695.79 172.354ZM695.35 182.678C697.476 182.678 698.744 181.056 698.744 178.349C698.744 175.642 697.476 174.02 695.36 174.02C693.266 174.02 691.944 175.685 691.944 178.349C691.944 181.002 693.266 182.678 695.35 182.678ZM708.976 172.354C711.93 172.354 713.842 174.707 713.842 178.349C713.842 181.969 711.92 184.343 708.976 184.343C707.322 184.343 705.99 183.623 705.356 182.398H705.184V188.006H703.337V172.559H705.098V174.492H705.27C706.011 173.16 707.397 172.354 708.976 172.354ZM708.536 182.678C710.663 182.678 711.93 181.056 711.93 178.349C711.93 175.642 710.663 174.02 708.547 174.02C706.452 174.02 705.131 175.685 705.131 178.349C705.131 181.002 706.452 182.678 708.536 182.678ZM716.63 184.139V167.961H718.478V184.139H716.63ZM721.889 184.139V172.559H723.736V184.139H721.889ZM722.813 170.206C722.104 170.206 721.524 169.626 721.524 168.917C721.524 168.208 722.104 167.628 722.813 167.628C723.522 167.628 724.102 168.208 724.102 168.917C724.102 169.626 723.522 170.206 722.813 170.206ZM731.659 173.987C729.811 173.987 728.522 175.341 728.383 177.393H734.763C734.721 175.341 733.496 173.987 731.659 173.987ZM734.71 181.142H736.557C735.999 183.129 734.216 184.343 731.68 184.343C728.469 184.343 726.46 182.022 726.46 178.359C726.46 174.718 728.501 172.354 731.68 172.354C734.806 172.354 736.708 174.578 736.708 178.177V178.886H728.383V178.972C728.479 181.26 729.758 182.71 731.723 182.71C733.217 182.71 734.226 182.162 734.71 181.142ZM739.388 184.139V172.559H741.15V174.277H741.322C741.666 173.149 742.998 172.354 744.534 172.354C744.834 172.354 745.221 172.376 745.458 172.408V174.256C745.307 174.213 744.641 174.148 744.276 174.148C742.514 174.148 741.236 175.33 741.236 176.963V184.139H739.388Z" fill="white"/>
</g>
<defs>
<filter id="filter0_dddddd_1325_3183" x="9.5" y="35.6387" width="335" height="335" filterUnits="userSpaceOnUse" color-interpolation-filters="sRGB">
<feFlood flood-opacity="0" result="BackgroundImageFix"/>
<feColorMatrix in="SourceAlpha" type="matrix" values="0 0 0 0 0 0 0 0 0 0 0 0 0 0 0 0 0 0 127 0" result="hardAlpha"/>
<feOffset dx="31" dy="27"/>
<feGaussianBlur stdDeviation="40"/>
<feComposite in2="hardAlpha" operator="out"/>
<feColorMatrix type="matrix" values="0 0 0 0 0 0 0 0 0 0 0 0 0 0 0 0 0 0 0.07 0"/>
<feBlend mode="normal" in2="BackgroundImageFix" result="effect1_dropShadow_1325_3183"/>
<feColorMatrix in="SourceAlpha" type="matrix" values="0 0 0 0 0 0 0 0 0 0 0 0 0 0 0 0 0 0 127 0" result="hardAlpha"/>
<feOffset dx="13" dy="11.3"/>
<feGaussianBlur stdDeviation="16.7"/>
<feComposite in2="hardAlpha" operator="out"/>
<feColorMatrix type="matrix" values="0 0 0 0 0 0 0 0 0 0 0 0 0 0 0 0 0 0 0.05 0"/>
<feBlend mode="normal" in2="effect1_dropShadow_1325_3183" result="effect2_dropShadow_1325_3183"/>
<feColorMatrix in="SourceAlpha" type="matrix" values="0 0 0 0 0 0 0 0 0 0 0 0 0 0 0 0 0 0 127 0" result="hardAlpha"/>
<feOffset dx="6.9" dy="6"/>
<feGaussianBlur stdDeviation="8.95"/>
<feComposite in2="hardAlpha" operator="out"/>
<feColorMatrix type="matrix" values="0 0 0 0 0 0 0 0 0 0 0 0 0 0 0 0 0 0 0.042 0"/>
<feBlend mode="normal" in2="effect2_dropShadow_1325_3183" result="effect3_dropShadow_1325_3183"/>
<feColorMatrix in="SourceAlpha" type="matrix" values="0 0 0 0 0 0 0 0 0 0 0 0 0 0 0 0 0 0 127 0" result="hardAlpha"/>
<feOffset dx="3.9" dy="3.4"/>
<feGaussianBlur stdDeviation="5"/>
<feComposite in2="hardAlpha" operator="out"/>
<feColorMatrix type="matrix" values="0 0 0 0 0 0 0 0 0 0 0 0 0 0 0 0 0 0 0.035 0"/>
<feBlend mode="normal" in2="effect3_dropShadow_1325_3183" result="effect4_dropShadow_1325_3183"/>
<feColorMatrix in="SourceAlpha" type="matrix" values="0 0 0 0 0 0 0 0 0 0 0 0 0 0 0 0 0 0 127 0" result="hardAlpha"/>
<feOffset dx="2.1" dy="1.8"/>
<feGaussianBlur stdDeviation="2.65"/>
<feComposite in2="hardAlpha" operator="out"/>
<feColorMatrix type="matrix" values="0 0 0 0 0 0 0 0 0 0 0 0 0 0 0 0 0 0 0.028 0"/>
<feBlend mode="normal" in2="effect4_dropShadow_1325_3183" result="effect5_dropShadow_1325_3183"/>
<feColorMatrix in="SourceAlpha" type="matrix" values="0 0 0 0 0 0 0 0 0 0 0 0 0 0 0 0 0 0 127 0" result="hardAlpha"/>
<feOffset dx="0.9" dy="0.7"/>
<feGaussianBlur stdDeviation="1.1"/>
<feComposite in2="hardAlpha" operator="out"/>
<feColorMatrix type="matrix" values="0 0 0 0 0 0 0 0 0 0 0 0 0 0 0 0 0 0 0.02 0"/>
<feBlend mode="normal" in2="effect5_dropShadow_1325_3183" result="effect6_dropShadow_1325_3183"/>
<feBlend mode="normal" in="SourceGraphic" in2="effect6_dropShadow_1325_3183" result="shape"/>
</filter>
<filter id="filter1_dddddd_1325_3183" x="288.5" y="35.6387" width="335" height="335" filterUnits="userSpaceOnUse" color-interpolation-filters="sRGB">
<feFlood flood-opacity="0" result="BackgroundImageFix"/>
<feColorMatrix in="SourceAlpha" type="matrix" values="0 0 0 0 0 0 0 0 0 0 0 0 0 0 0 0 0 0 127 0" result="hardAlpha"/>
<feOffset dx="31" dy="27"/>
<feGaussianBlur stdDeviation="40"/>
<feComposite in2="hardAlpha" operator="out"/>
<feColorMatrix type="matrix" values="0 0 0 0 0 0 0 0 0 0 0 0 0 0 0 0 0 0 0.07 0"/>
<feBlend mode="normal" in2="BackgroundImageFix" result="effect1_dropShadow_1325_3183"/>
<feColorMatrix in="SourceAlpha" type="matrix" values="0 0 0 0 0 0 0 0 0 0 0 0 0 0 0 0 0 0 127 0" result="hardAlpha"/>
<feOffset dx="13" dy="11.3"/>
<feGaussianBlur stdDeviation="16.7"/>
<feComposite in2="hardAlpha" operator="out"/>
<feColorMatrix type="matrix" values="0 0 0 0 0 0 0 0 0 0 0 0 0 0 0 0 0 0 0.05 0"/>
<feBlend mode="normal" in2="effect1_dropShadow_1325_3183" result="effect2_dropShadow_1325_3183"/>
<feColorMatrix in="SourceAlpha" type="matrix" values="0 0 0 0 0 0 0 0 0 0 0 0 0 0 0 0 0 0 127 0" result="hardAlpha"/>
<feOffset dx="6.9" dy="6"/>
<feGaussianBlur stdDeviation="8.95"/>
<feComposite in2="hardAlpha" operator="out"/>
<feColorMatrix type="matrix" values="0 0 0 0 0 0 0 0 0 0 0 0 0 0 0 0 0 0 0.042 0"/>
<feBlend mode="normal" in2="effect2_dropShadow_1325_3183" result="effect3_dropShadow_1325_3183"/>
<feColorMatrix in="SourceAlpha" type="matrix" values="0 0 0 0 0 0 0 0 0 0 0 0 0 0 0 0 0 0 127 0" result="hardAlpha"/>
<feOffset dx="3.9" dy="3.4"/>
<feGaussianBlur stdDeviation="5"/>
<feComposite in2="hardAlpha" operator="out"/>
<feColorMatrix type="matrix" values="0 0 0 0 0 0 0 0 0 0 0 0 0 0 0 0 0 0 0.035 0"/>
<feBlend mode="normal" in2="effect3_dropShadow_1325_3183" result="effect4_dropShadow_1325_3183"/>
<feColorMatrix in="SourceAlpha" type="matrix" values="0 0 0 0 0 0 0 0 0 0 0 0 0 0 0 0 0 0 127 0" result="hardAlpha"/>
<feOffset dx="2.1" dy="1.8"/>
<feGaussianBlur stdDeviation="2.65"/>
<feComposite in2="hardAlpha" operator="out"/>
<feColorMatrix type="matrix" values="0 0 0 0 0 0 0 0 0 0 0 0 0 0 0 0 0 0 0.028 0"/>
<feBlend mode="normal" in2="effect4_dropShadow_1325_3183" result="effect5_dropShadow_1325_3183"/>
<feColorMatrix in="SourceAlpha" type="matrix" values="0 0 0 0 0 0 0 0 0 0 0 0 0 0 0 0 0 0 127 0" result="hardAlpha"/>
<feOffset dx="0.9" dy="0.7"/>
<feGaussianBlur stdDeviation="1.1"/>
<feComposite in2="hardAlpha" operator="out"/>
<feColorMatrix type="matrix" values="0 0 0 0 0 0 0 0 0 0 0 0 0 0 0 0 0 0 0.02 0"/>
<feBlend mode="normal" in2="effect5_dropShadow_1325_3183" result="effect6_dropShadow_1325_3183"/>
<feBlend mode="normal" in="SourceGraphic" in2="effect6_dropShadow_1325_3183" result="shape"/>
</filter>
<filter id="filter2_dddddd_1325_3183" x="567.5" y="35.6387" width="335" height="335" filterUnits="userSpaceOnUse" color-interpolation-filters="sRGB">
<feFlood flood-opacity="0" result="BackgroundImageFix"/>
<feColorMatrix in="SourceAlpha" type="matrix" values="0 0 0 0 0 0 0 0 0 0 0 0 0 0 0 0 0 0 127 0" result="hardAlpha"/>
<feOffset dx="31" dy="27"/>
<feGaussianBlur stdDeviation="40"/>
<feComposite in2="hardAlpha" operator="out"/>
<feColorMatrix type="matrix" values="0 0 0 0 0 0 0 0 0 0 0 0 0 0 0 0 0 0 0.07 0"/>
<feBlend mode="normal" in2="BackgroundImageFix" result="effect1_dropShadow_1325_3183"/>
<feColorMatrix in="SourceAlpha" type="matrix" values="0 0 0 0 0 0 0 0 0 0 0 0 0 0 0 0 0 0 127 0" result="hardAlpha"/>
<feOffset dx="13" dy="11.3"/>
<feGaussianBlur stdDeviation="16.7"/>
<feComposite in2="hardAlpha" operator="out"/>
<feColorMatrix type="matrix" values="0 0 0 0 0 0 0 0 0 0 0 0 0 0 0 0 0 0 0.05 0"/>
<feBlend mode="normal" in2="effect1_dropShadow_1325_3183" result="effect2_dropShadow_1325_3183"/>
<feColorMatrix in="SourceAlpha" type="matrix" values="0 0 0 0 0 0 0 0 0 0 0 0 0 0 0 0 0 0 127 0" result="hardAlpha"/>
<feOffset dx="6.9" dy="6"/>
<feGaussianBlur stdDeviation="8.95"/>
<feComposite in2="hardAlpha" operator="out"/>
<feColorMatrix type="matrix" values="0 0 0 0 0 0 0 0 0 0 0 0 0 0 0 0 0 0 0.042 0"/>
<feBlend mode="normal" in2="effect2_dropShadow_1325_3183" result="effect3_dropShadow_1325_3183"/>
<feColorMatrix in="SourceAlpha" type="matrix" values="0 0 0 0 0 0 0 0 0 0 0 0 0 0 0 0 0 0 127 0" result="hardAlpha"/>
<feOffset dx="3.9" dy="3.4"/>
<feGaussianBlur stdDeviation="5"/>
<feComposite in2="hardAlpha" operator="out"/>
<feColorMatrix type="matrix" values="0 0 0 0 0 0 0 0 0 0 0 0 0 0 0 0 0 0 0.035 0"/>
<feBlend mode="normal" in2="effect3_dropShadow_1325_3183" result="effect4_dropShadow_1325_3183"/>
<feColorMatrix in="SourceAlpha" type="matrix" values="0 0 0 0 0 0 0 0 0 0 0 0 0 0 0 0 0 0 127 0" result="hardAlpha"/>
<feOffset dx="2.1" dy="1.8"/>
<feGaussianBlur stdDeviation="2.65"/>
<feComposite in2="hardAlpha" operator="out"/>
<feColorMatrix type="matrix" values="0 0 0 0 0 0 0 0 0 0 0 0 0 0 0 0 0 0 0.028 0"/>
<feBlend mode="normal" in2="effect4_dropShadow_1325_3183" result="effect5_dropShadow_1325_3183"/>
<feColorMatrix in="SourceAlpha" type="matrix" values="0 0 0 0 0 0 0 0 0 0 0 0 0 0 0 0 0 0 127 0" result="hardAlpha"/>
<feOffset dx="0.9" dy="0.7"/>
<feGaussianBlur stdDeviation="1.1"/>
<feComposite in2="hardAlpha" operator="out"/>
<feColorMatrix type="matrix" values="0 0 0 0 0 0 0 0 0 0 0 0 0 0 0 0 0 0 0.02 0"/>
<feBlend mode="normal" in2="effect5_dropShadow_1325_3183" result="effect6_dropShadow_1325_3183"/>
<feBlend mode="normal" in="SourceGraphic" in2="effect6_dropShadow_1325_3183" result="shape"/>
</filter>
</defs>
</svg>
