<svg width="903" height="371" viewBox="0 0 903 371" fill="none" xmlns="http://www.w3.org/2000/svg">
<rect width="850" height="351" transform="translate(0 0.638672)" fill="black" fill-opacity="0.0235"/>
<g filter="url(#filter0_dddddd_1325_3115)">
<rect x="58.5" y="88.6387" width="175" height="175" rx="87.5" fill="black" fill-opacity="0.0901961" shape-rendering="crispEdges"/>
<path d="M124.711 184.504C120.5 184.504 117.868 181.389 117.868 176.394C117.868 171.388 120.489 168.272 124.7 168.272C127.966 168.272 130.512 170.324 130.974 173.311H129.008C128.492 171.312 126.838 170.056 124.7 170.056C121.725 170.056 119.856 172.505 119.856 176.394C119.856 180.282 121.725 182.721 124.711 182.721C126.87 182.721 128.514 181.614 129.008 179.82H130.974C130.458 182.667 128.009 184.504 124.711 184.504ZM133.869 184.139V167.961H135.717V184.139H133.869ZM139.128 184.139V172.559H140.975V184.139H139.128ZM140.051 170.206C139.342 170.206 138.762 169.626 138.762 168.917C138.762 168.208 139.342 167.628 140.051 167.628C140.76 167.628 141.34 168.208 141.34 168.917C141.34 169.626 140.76 170.206 140.051 170.206ZM148.898 173.987C147.05 173.987 145.761 175.341 145.621 177.393H152.002C151.959 175.341 150.735 173.987 148.898 173.987ZM151.949 181.142H153.796C153.238 183.129 151.454 184.343 148.919 184.343C145.707 184.343 143.699 182.022 143.699 178.359C143.699 174.718 145.74 172.354 148.919 172.354C152.045 172.354 153.947 174.578 153.947 178.177V178.886H145.621V178.972C145.718 181.26 146.996 182.71 148.962 182.71C150.455 182.71 151.465 182.162 151.949 181.142ZM156.627 184.139V172.559H158.389V174.385H158.561C159.141 173.106 160.269 172.354 162.041 172.354C164.641 172.354 166.091 173.891 166.091 176.641V184.139H164.243V177.092C164.243 175.008 163.362 174.02 161.515 174.02C159.667 174.02 158.475 175.255 158.475 177.285V184.139H156.627ZM170.028 169.562H171.876V172.559H174.454V174.105H171.876V180.658C171.876 182.022 172.391 182.603 173.595 182.603C173.928 182.603 174.11 182.592 174.454 182.56V184.117C174.089 184.182 173.734 184.225 173.369 184.225C170.984 184.225 170.028 183.344 170.028 181.131V174.105H168.159V172.559H170.028V169.562Z" fill="black"/>
</g>
<rect x="337.5" y="88.6387" width="175" height="175" rx="12" fill="black" fill-opacity="0.0235294"/>
<path d="M411.763 153.398V155.139H402.352V139.638H404.286V153.398H411.763ZM423.767 143.559V155.139H422.006V153.323H421.834C421.254 154.612 420.018 155.343 418.246 155.343C415.646 155.343 414.293 153.796 414.293 151.057V143.559H416.14V150.605C416.14 152.689 416.914 153.656 418.761 153.656C420.802 153.656 421.92 152.442 421.92 150.412V143.559H423.767ZM427.028 155.139V143.559H428.789V145.385H428.961C429.488 144.096 430.648 143.354 432.195 143.354C433.763 143.354 434.859 144.182 435.396 145.385H435.568C436.191 144.16 437.512 143.354 439.113 143.354C441.476 143.354 442.797 144.708 442.797 147.136V155.139H440.95V147.565C440.95 145.857 440.144 145.02 438.511 145.02C436.9 145.02 435.826 146.223 435.826 147.694V155.139H433.978V147.275C433.978 145.9 433.022 145.02 431.561 145.02C430.046 145.02 428.875 146.33 428.875 147.963V155.139H427.028ZM445.993 155.139V143.559H447.841V155.139H445.993ZM446.917 141.206C446.208 141.206 445.628 140.626 445.628 139.917C445.628 139.208 446.208 138.628 446.917 138.628C447.626 138.628 448.206 139.208 448.206 139.917C448.206 140.626 447.626 141.206 446.917 141.206ZM383.811 197.638H389.666C392.598 197.638 394.628 199.7 394.628 202.654C394.628 205.555 392.555 207.606 389.644 207.606H385.745V213.139H383.811V197.638ZM385.745 199.356V205.888H389.161C391.363 205.888 392.641 204.706 392.641 202.654C392.641 200.527 391.406 199.356 389.161 199.356H385.745ZM397.448 213.139V196.961H399.296V213.139H397.448ZM406.23 211.721C408.132 211.721 409.539 210.475 409.539 208.82V207.757L406.424 207.961C404.662 208.079 403.889 208.691 403.889 209.852C403.889 211.033 404.888 211.721 406.23 211.721ZM405.887 213.343C403.642 213.343 401.976 212.011 401.976 209.895C401.976 207.821 403.502 206.629 406.198 206.468L409.539 206.264V205.211C409.539 203.782 408.647 202.998 406.918 202.998C405.532 202.998 404.565 203.524 404.308 204.438H402.438C402.685 202.579 404.512 201.354 406.982 201.354C409.808 201.354 411.387 202.805 411.387 205.211V213.139H409.625V211.431H409.453C408.701 212.666 407.434 213.343 405.887 213.343ZM415.356 198.562H417.204V201.559H419.782V203.105H417.204V209.658C417.204 211.022 417.719 211.603 418.923 211.603C419.256 211.603 419.438 211.592 419.782 211.56V213.117C419.417 213.182 419.062 213.225 418.697 213.225C416.312 213.225 415.356 212.344 415.356 210.131V203.105H413.487V201.559H415.356V198.562ZM423.128 213.139V203.105H421.205V201.559H423.128V200.431C423.128 198.057 424.364 197.068 426.598 197.068C426.963 197.068 427.286 197.101 427.737 197.176V198.723C427.49 198.669 427.071 198.626 426.705 198.626C425.599 198.626 424.976 199.185 424.976 200.484V201.559H427.629V203.105H424.976V213.139H423.128ZM434.37 213.343C431.072 213.343 429.031 211.065 429.031 207.349C429.031 203.621 431.072 201.354 434.37 201.354C437.668 201.354 439.709 203.621 439.709 207.349C439.709 211.065 437.668 213.343 434.37 213.343ZM434.37 211.678C436.562 211.678 437.797 210.088 437.797 207.349C437.797 204.599 436.562 203.02 434.37 203.02C432.179 203.02 430.943 204.599 430.943 207.349C430.943 210.088 432.179 211.678 434.37 211.678ZM442.389 213.139V201.559H444.151V203.277H444.323C444.667 202.149 445.999 201.354 447.535 201.354C447.836 201.354 448.222 201.376 448.459 201.408V203.256C448.308 203.213 447.642 203.148 447.277 203.148C445.515 203.148 444.237 204.33 444.237 205.963V213.139H442.389ZM450.763 213.139V201.559H452.525V203.385H452.697C453.223 202.096 454.383 201.354 455.93 201.354C457.499 201.354 458.594 202.182 459.131 203.385H459.303C459.926 202.16 461.248 201.354 462.848 201.354C465.211 201.354 466.533 202.708 466.533 205.136V213.139H464.685V205.565C464.685 203.857 463.879 203.02 462.247 203.02C460.635 203.02 459.561 204.223 459.561 205.694V213.139H457.713V205.275C457.713 203.9 456.757 203.02 455.296 203.02C453.782 203.02 452.611 204.33 452.611 205.963V213.139H450.763Z" fill="black"/>
<path d="M584.414 178.414C585.195 177.633 585.195 176.367 584.414 175.586L571.686 162.858C570.905 162.077 569.639 162.077 568.858 162.858C568.077 163.639 568.077 164.905 568.858 165.686L580.172 177L568.858 188.314C568.077 189.095 568.077 190.361 568.858 191.142C569.639 191.923 570.905 191.923 571.686 191.142L584.414 178.414ZM267 179H583V175H267V179Z" fill="black" fill-opacity="0.486275"/>
<g filter="url(#filter1_dddddd_1325_3115)">
<rect x="616.5" y="88.6387" width="175" height="175" rx="87.5" fill="black" fill-opacity="0.0901961" shape-rendering="crispEdges"/>
<path d="M663.208 180.089H665.164C665.4 181.711 666.947 182.742 669.149 182.742C671.233 182.742 672.769 181.614 672.769 180.078C672.769 178.757 671.802 177.919 669.665 177.382L667.677 176.866C664.874 176.157 663.66 174.89 663.66 172.688C663.66 170.056 665.862 168.272 669.138 168.272C672.135 168.272 674.37 170.056 674.531 172.559H672.586C672.318 170.969 671.007 170.023 669.074 170.023C667.011 170.023 665.647 171.055 665.647 172.623C665.647 173.837 666.496 174.535 668.633 175.083L670.255 175.513C673.467 176.318 674.756 177.564 674.756 179.842C674.756 182.688 672.511 184.504 668.966 184.504C665.679 184.504 663.413 182.764 663.208 180.089ZM686.89 172.559V184.139H685.128V182.323H684.956C684.376 183.612 683.141 184.343 681.368 184.343C678.769 184.343 677.415 182.796 677.415 180.057V172.559H679.263V179.605C679.263 181.689 680.036 182.656 681.884 182.656C683.925 182.656 685.042 181.442 685.042 179.412V172.559H686.89ZM695.79 172.354C698.744 172.354 700.656 174.707 700.656 178.349C700.656 181.969 698.733 184.343 695.79 184.343C694.136 184.343 692.804 183.623 692.17 182.398H691.998V188.006H690.15V172.559H691.912V174.492H692.084C692.825 173.16 694.211 172.354 695.79 172.354ZM695.35 182.678C697.476 182.678 698.744 181.056 698.744 178.349C698.744 175.642 697.476 174.02 695.36 174.02C693.266 174.02 691.944 175.685 691.944 178.349C691.944 181.002 693.266 182.678 695.35 182.678ZM708.976 172.354C711.93 172.354 713.842 174.707 713.842 178.349C713.842 181.969 711.92 184.343 708.976 184.343C707.322 184.343 705.99 183.623 705.356 182.398H705.184V188.006H703.337V172.559H705.098V174.492H705.27C706.011 173.16 707.397 172.354 708.976 172.354ZM708.536 182.678C710.663 182.678 711.93 181.056 711.93 178.349C711.93 175.642 710.663 174.02 708.547 174.02C706.452 174.02 705.131 175.685 705.131 178.349C705.131 181.002 706.452 182.678 708.536 182.678ZM716.63 184.139V167.961H718.478V184.139H716.63ZM721.889 184.139V172.559H723.736V184.139H721.889ZM722.813 170.206C722.104 170.206 721.524 169.626 721.524 168.917C721.524 168.208 722.104 167.628 722.813 167.628C723.522 167.628 724.102 168.208 724.102 168.917C724.102 169.626 723.522 170.206 722.813 170.206ZM731.659 173.987C729.811 173.987 728.522 175.341 728.383 177.393H734.763C734.721 175.341 733.496 173.987 731.659 173.987ZM734.71 181.142H736.557C735.999 183.129 734.216 184.343 731.68 184.343C728.469 184.343 726.46 182.022 726.46 178.359C726.46 174.718 728.501 172.354 731.68 172.354C734.806 172.354 736.708 174.578 736.708 178.177V178.886H728.383V178.972C728.479 181.26 729.758 182.71 731.723 182.71C733.217 182.71 734.226 182.162 734.71 181.142ZM739.388 184.139V172.559H741.15V174.277H741.322C741.666 173.149 742.998 172.354 744.534 172.354C744.834 172.354 745.221 172.376 745.458 172.408V174.256C745.307 174.213 744.641 174.148 744.276 174.148C742.514 174.148 741.236 175.33 741.236 176.963V184.139H739.388Z" fill="black"/>
</g>
<defs>
<filter id="filter0_dddddd_1325_3115" x="9.5" y="35.6387" width="335" height="335" filterUnits="userSpaceOnUse" color-interpolation-filters="sRGB">
<feFlood flood-opacity="0" result="BackgroundImageFix"/>
<feColorMatrix in="SourceAlpha" type="matrix" values="0 0 0 0 0 0 0 0 0 0 0 0 0 0 0 0 0 0 127 0" result="hardAlpha"/>
<feOffset dx="31" dy="27"/>
<feGaussianBlur stdDeviation="40"/>
<feComposite in2="hardAlpha" operator="out"/>
<feColorMatrix type="matrix" values="0 0 0 0 0 0 0 0 0 0 0 0 0 0 0 0 0 0 0.07 0"/>
<feBlend mode="normal" in2="BackgroundImageFix" result="effect1_dropShadow_1325_3115"/>
<feColorMatrix in="SourceAlpha" type="matrix" values="0 0 0 0 0 0 0 0 0 0 0 0 0 0 0 0 0 0 127 0" result="hardAlpha"/>
<feOffset dx="13" dy="11.3"/>
<feGaussianBlur stdDeviation="16.7"/>
<feComposite in2="hardAlpha" operator="out"/>
<feColorMatrix type="matrix" values="0 0 0 0 0 0 0 0 0 0 0 0 0 0 0 0 0 0 0.05 0"/>
<feBlend mode="normal" in2="effect1_dropShadow_1325_3115" result="effect2_dropShadow_1325_3115"/>
<feColorMatrix in="SourceAlpha" type="matrix" values="0 0 0 0 0 0 0 0 0 0 0 0 0 0 0 0 0 0 127 0" result="hardAlpha"/>
<feOffset dx="6.9" dy="6"/>
<feGaussianBlur stdDeviation="8.95"/>
<feComposite in2="hardAlpha" operator="out"/>
<feColorMatrix type="matrix" values="0 0 0 0 0 0 0 0 0 0 0 0 0 0 0 0 0 0 0.042 0"/>
<feBlend mode="normal" in2="effect2_dropShadow_1325_3115" result="effect3_dropShadow_1325_3115"/>
<feColorMatrix in="SourceAlpha" type="matrix" values="0 0 0 0 0 0 0 0 0 0 0 0 0 0 0 0 0 0 127 0" result="hardAlpha"/>
<feOffset dx="3.9" dy="3.4"/>
<feGaussianBlur stdDeviation="5"/>
<feComposite in2="hardAlpha" operator="out"/>
<feColorMatrix type="matrix" values="0 0 0 0 0 0 0 0 0 0 0 0 0 0 0 0 0 0 0.035 0"/>
<feBlend mode="normal" in2="effect3_dropShadow_1325_3115" result="effect4_dropShadow_1325_3115"/>
<feColorMatrix in="SourceAlpha" type="matrix" values="0 0 0 0 0 0 0 0 0 0 0 0 0 0 0 0 0 0 127 0" result="hardAlpha"/>
<feOffset dx="2.1" dy="1.8"/>
<feGaussianBlur stdDeviation="2.65"/>
<feComposite in2="hardAlpha" operator="out"/>
<feColorMatrix type="matrix" values="0 0 0 0 0 0 0 0 0 0 0 0 0 0 0 0 0 0 0.028 0"/>
<feBlend mode="normal" in2="effect4_dropShadow_1325_3115" result="effect5_dropShadow_1325_3115"/>
<feColorMatrix in="SourceAlpha" type="matrix" values="0 0 0 0 0 0 0 0 0 0 0 0 0 0 0 0 0 0 127 0" result="hardAlpha"/>
<feOffset dx="0.9" dy="0.7"/>
<feGaussianBlur stdDeviation="1.1"/>
<feComposite in2="hardAlpha" operator="out"/>
<feColorMatrix type="matrix" values="0 0 0 0 0 0 0 0 0 0 0 0 0 0 0 0 0 0 0.02 0"/>
<feBlend mode="normal" in2="effect5_dropShadow_1325_3115" result="effect6_dropShadow_1325_3115"/>
<feBlend mode="normal" in="SourceGraphic" in2="effect6_dropShadow_1325_3115" result="shape"/>
</filter>
<filter id="filter1_dddddd_1325_3115" x="567.5" y="35.6387" width="335" height="335" filterUnits="userSpaceOnUse" color-interpolation-filters="sRGB">
<feFlood flood-opacity="0" result="BackgroundImageFix"/>
<feColorMatrix in="SourceAlpha" type="matrix" values="0 0 0 0 0 0 0 0 0 0 0 0 0 0 0 0 0 0 127 0" result="hardAlpha"/>
<feOffset dx="31" dy="27"/>
<feGaussianBlur stdDeviation="40"/>
<feComposite in2="hardAlpha" operator="out"/>
<feColorMatrix type="matrix" values="0 0 0 0 0 0 0 0 0 0 0 0 0 0 0 0 0 0 0.07 0"/>
<feBlend mode="normal" in2="BackgroundImageFix" result="effect1_dropShadow_1325_3115"/>
<feColorMatrix in="SourceAlpha" type="matrix" values="0 0 0 0 0 0 0 0 0 0 0 0 0 0 0 0 0 0 127 0" result="hardAlpha"/>
<feOffset dx="13" dy="11.3"/>
<feGaussianBlur stdDeviation="16.7"/>
<feComposite in2="hardAlpha" operator="out"/>
<feColorMatrix type="matrix" values="0 0 0 0 0 0 0 0 0 0 0 0 0 0 0 0 0 0 0.05 0"/>
<feBlend mode="normal" in2="effect1_dropShadow_1325_3115" result="effect2_dropShadow_1325_3115"/>
<feColorMatrix in="SourceAlpha" type="matrix" values="0 0 0 0 0 0 0 0 0 0 0 0 0 0 0 0 0 0 127 0" result="hardAlpha"/>
<feOffset dx="6.9" dy="6"/>
<feGaussianBlur stdDeviation="8.95"/>
<feComposite in2="hardAlpha" operator="out"/>
<feColorMatrix type="matrix" values="0 0 0 0 0 0 0 0 0 0 0 0 0 0 0 0 0 0 0.042 0"/>
<feBlend mode="normal" in2="effect2_dropShadow_1325_3115" result="effect3_dropShadow_1325_3115"/>
<feColorMatrix in="SourceAlpha" type="matrix" values="0 0 0 0 0 0 0 0 0 0 0 0 0 0 0 0 0 0 127 0" result="hardAlpha"/>
<feOffset dx="3.9" dy="3.4"/>
<feGaussianBlur stdDeviation="5"/>
<feComposite in2="hardAlpha" operator="out"/>
<feColorMatrix type="matrix" values="0 0 0 0 0 0 0 0 0 0 0 0 0 0 0 0 0 0 0.035 0"/>
<feBlend mode="normal" in2="effect3_dropShadow_1325_3115" result="effect4_dropShadow_1325_3115"/>
<feColorMatrix in="SourceAlpha" type="matrix" values="0 0 0 0 0 0 0 0 0 0 0 0 0 0 0 0 0 0 127 0" result="hardAlpha"/>
<feOffset dx="2.1" dy="1.8"/>
<feGaussianBlur stdDeviation="2.65"/>
<feComposite in2="hardAlpha" operator="out"/>
<feColorMatrix type="matrix" values="0 0 0 0 0 0 0 0 0 0 0 0 0 0 0 0 0 0 0.028 0"/>
<feBlend mode="normal" in2="effect4_dropShadow_1325_3115" result="effect5_dropShadow_1325_3115"/>
<feColorMatrix in="SourceAlpha" type="matrix" values="0 0 0 0 0 0 0 0 0 0 0 0 0 0 0 0 0 0 127 0" result="hardAlpha"/>
<feOffset dx="0.9" dy="0.7"/>
<feGaussianBlur stdDeviation="1.1"/>
<feComposite in2="hardAlpha" operator="out"/>
<feColorMatrix type="matrix" values="0 0 0 0 0 0 0 0 0 0 0 0 0 0 0 0 0 0 0.02 0"/>
<feBlend mode="normal" in2="effect5_dropShadow_1325_3115" result="effect6_dropShadow_1325_3115"/>
<feBlend mode="normal" in="SourceGraphic" in2="effect6_dropShadow_1325_3115" result="shape"/>
</filter>
</defs>
</svg>
