<svg width="850" height="351" viewBox="0 0 850 351" fill="none" xmlns="http://www.w3.org/2000/svg">
<path d="M169.867 168.996H171.715V171.993H174.293V173.54H171.715V180.093C171.715 181.457 172.23 182.037 173.433 182.037C173.766 182.037 173.949 182.026 174.293 181.994V183.552C173.928 183.616 173.573 183.659 173.208 183.659C170.823 183.659 169.867 182.778 169.867 180.565V173.54H167.998V171.993H169.867V168.996Z" fill="black"/>
<path d="M156.466 183.573V171.993H158.228V173.819H158.399C158.98 172.541 160.107 171.789 161.88 171.789C164.48 171.789 165.93 173.325 165.93 176.075V183.573H164.082V176.526C164.082 174.442 163.201 173.454 161.354 173.454C159.506 173.454 158.314 174.689 158.314 176.72V183.573H156.466Z" fill="black"/>
<path d="M148.737 173.422C146.889 173.422 145.6 174.775 145.46 176.827H151.841C151.798 174.775 150.574 173.422 148.737 173.422ZM151.787 180.576H153.635C153.077 182.563 151.293 183.777 148.758 183.777C145.546 183.777 143.537 181.457 143.537 177.794C143.537 174.152 145.578 171.789 148.758 171.789C151.884 171.789 153.785 174.013 153.785 177.611V178.32H145.46V178.406C145.557 180.694 146.835 182.145 148.801 182.145C150.294 182.145 151.304 181.597 151.787 180.576Z" fill="black"/>
<path d="M138.966 183.573V171.993H140.814V183.573H138.966ZM139.89 169.641C139.181 169.641 138.601 169.061 138.601 168.352C138.601 167.643 139.181 167.062 139.89 167.062C140.599 167.062 141.179 167.643 141.179 168.352C141.179 169.061 140.599 169.641 139.89 169.641Z" fill="black"/>
<path d="M133.708 183.572V167.395H135.556V183.572H133.708Z" fill="black"/>
<path d="M124.55 183.938C120.339 183.938 117.707 180.823 117.707 175.828C117.707 170.822 120.328 167.707 124.539 167.707C127.805 167.707 130.351 169.759 130.813 172.745H128.847C128.331 170.747 126.677 169.49 124.539 169.49C121.564 169.49 119.695 171.939 119.695 175.828C119.695 179.717 121.564 182.155 124.55 182.155C126.709 182.155 128.353 181.049 128.847 179.255H130.813C130.297 182.102 127.848 183.938 124.55 183.938Z" fill="black"/>
<path d="M739.055 181.821V170.241H740.817V171.96H740.989C741.333 170.832 742.665 170.037 744.201 170.037C744.501 170.037 744.888 170.059 745.125 170.091V171.938C744.974 171.896 744.308 171.831 743.943 171.831C742.181 171.831 740.903 173.013 740.903 174.646V181.821H739.055Z" fill="black"/>
<path d="M731.326 171.67C729.478 171.67 728.189 173.023 728.05 175.075H734.43C734.388 173.023 733.163 171.67 731.326 171.67ZM734.377 178.824H736.224C735.666 180.812 733.883 182.025 731.347 182.025C728.136 182.025 726.127 179.705 726.127 176.042C726.127 172.4 728.168 170.037 731.347 170.037C734.473 170.037 736.375 172.261 736.375 175.859V176.568H728.05V176.654C728.146 178.942 729.425 180.393 731.39 180.393C732.884 180.393 733.893 179.845 734.377 178.824Z" fill="black"/>
<path d="M721.556 181.821V170.241H723.403V181.821H721.556ZM722.48 167.889C721.771 167.889 721.191 167.309 721.191 166.6C721.191 165.891 721.771 165.311 722.48 165.311C723.189 165.311 723.769 165.891 723.769 166.6C723.769 167.309 723.189 167.889 722.48 167.889Z" fill="black"/>
<path d="M716.297 181.822V165.645H718.145V181.822H716.297Z" fill="black"/>
<path d="M708.643 170.037C711.597 170.037 713.509 172.39 713.509 176.031C713.509 179.651 711.587 182.025 708.643 182.025C706.989 182.025 705.657 181.306 705.023 180.081H704.851V185.688H703.004V170.241H704.765V172.175H704.937C705.678 170.843 707.064 170.037 708.643 170.037ZM708.203 180.36C710.33 180.36 711.597 178.738 711.597 176.031C711.597 173.324 710.33 171.702 708.214 171.702C706.119 171.702 704.798 173.367 704.798 176.031C704.798 178.685 706.119 180.36 708.203 180.36Z" fill="black"/>
<path d="M695.457 170.037C698.411 170.037 700.323 172.39 700.323 176.031C700.323 179.651 698.4 182.025 695.457 182.025C693.803 182.025 692.471 181.306 691.837 180.081H691.665V185.688H689.817V170.241H691.579V172.175H691.751C692.492 170.843 693.878 170.037 695.457 170.037ZM695.017 180.36C697.143 180.36 698.411 178.738 698.411 176.031C698.411 173.324 697.143 171.702 695.027 171.702C692.933 171.702 691.611 173.367 691.611 176.031C691.611 178.685 692.933 180.36 695.017 180.36Z" fill="black"/>
<path d="M686.557 170.242V181.822H684.795V180.007H684.623C684.043 181.296 682.808 182.026 681.035 182.026C678.436 182.026 677.082 180.479 677.082 177.74V170.242H678.93V177.289C678.93 179.373 679.703 180.34 681.551 180.34C683.592 180.34 684.709 179.126 684.709 177.096V170.242H686.557Z" fill="black"/>
<path d="M662.875 177.771H664.831C665.067 179.394 666.614 180.425 668.816 180.425C670.9 180.425 672.436 179.297 672.436 177.761C672.436 176.439 671.469 175.602 669.332 175.064L667.344 174.549C664.541 173.84 663.327 172.572 663.327 170.37C663.327 167.738 665.529 165.955 668.805 165.955C671.802 165.955 674.037 167.738 674.198 170.241H672.253C671.985 168.651 670.674 167.706 668.741 167.706C666.678 167.706 665.314 168.737 665.314 170.306C665.314 171.52 666.163 172.218 668.3 172.766L669.922 173.195C673.134 174.001 674.423 175.247 674.423 177.524C674.423 180.371 672.178 182.187 668.633 182.187C665.346 182.187 663.08 180.446 662.875 177.771Z" fill="black"/>
<path d="M451.263 212.999V201.419H453.025V203.245H453.197C453.723 201.956 454.883 201.215 456.43 201.215C457.999 201.215 459.094 202.042 459.631 203.245H459.803C460.426 202.021 461.748 201.215 463.348 201.215C465.711 201.215 467.033 202.568 467.033 204.996V212.999H465.185V205.426C465.185 203.718 464.379 202.88 462.747 202.88C461.135 202.88 460.061 204.083 460.061 205.555V212.999H458.213V205.136C458.213 203.761 457.257 202.88 455.796 202.88C454.282 202.88 453.111 204.19 453.111 205.823V212.999H451.263Z" fill="black"/>
<path d="M442.889 212.999V201.419H444.651V203.138H444.823C445.167 202.01 446.499 201.215 448.035 201.215C448.336 201.215 448.722 201.236 448.959 201.269V203.116C448.808 203.073 448.142 203.009 447.777 203.009C446.015 203.009 444.737 204.19 444.737 205.823V212.999H442.889Z" fill="black"/>
<path d="M434.87 213.203C431.572 213.203 429.531 210.926 429.531 207.209C429.531 203.481 431.572 201.215 434.87 201.215C438.168 201.215 440.209 203.481 440.209 207.209C440.209 210.926 438.168 213.203 434.87 213.203ZM434.87 211.538C437.062 211.538 438.297 209.948 438.297 207.209C438.297 204.459 437.062 202.88 434.87 202.88C432.679 202.88 431.443 204.459 431.443 207.209C431.443 209.948 432.679 211.538 434.87 211.538Z" fill="black"/>
<path d="M423.628 213V202.967H421.705V201.42H423.628V200.292C423.628 197.918 424.864 196.93 427.098 196.93C427.463 196.93 427.786 196.962 428.237 197.037V198.584C427.99 198.53 427.571 198.487 427.205 198.487C426.099 198.487 425.476 199.046 425.476 200.346V201.42H428.129V202.967H425.476V213H423.628Z" fill="black"/>
<path d="M415.856 198.422H417.704V201.419H420.282V202.966H417.704V209.519C417.704 210.883 418.219 211.463 419.422 211.463C419.755 211.463 419.938 211.452 420.282 211.42V212.978C419.917 213.042 419.562 213.085 419.197 213.085C416.812 213.085 415.856 212.204 415.856 209.991V202.966H413.987V201.419H415.856V198.422Z" fill="black"/>
<path d="M406.73 211.581C408.632 211.581 410.039 210.335 410.039 208.681V207.617L406.924 207.821C405.162 207.939 404.389 208.552 404.389 209.712C404.389 210.894 405.388 211.581 406.73 211.581ZM406.387 213.203C404.142 213.203 402.476 211.871 402.476 209.755C402.476 207.682 404.002 206.489 406.698 206.328L410.039 206.124V205.071C410.039 203.643 409.147 202.858 407.418 202.858C406.032 202.858 405.065 203.385 404.808 204.298H402.938C403.185 202.439 405.012 201.215 407.482 201.215C410.308 201.215 411.887 202.665 411.887 205.071V212.999H410.125V211.291H409.953C409.201 212.526 407.934 213.203 406.387 213.203Z" fill="black"/>
<path d="M397.948 212.998V196.82H399.796V212.998H397.948Z" fill="black"/>
<path d="M384.311 197.498H390.165C393.098 197.498 395.128 199.561 395.128 202.515C395.128 205.415 393.055 207.467 390.144 207.467H386.245V212.999H384.311V197.498ZM386.245 199.217V205.748H389.661C391.863 205.748 393.141 204.566 393.141 202.515C393.141 200.388 391.906 199.217 389.661 199.217H386.245Z" fill="black"/>
<path d="M446.493 154.999V143.419H448.341V154.999H446.493ZM447.417 141.066C446.708 141.066 446.128 140.486 446.128 139.777C446.128 139.068 446.708 138.488 447.417 138.488C448.126 138.488 448.706 139.068 448.706 139.777C448.706 140.486 448.126 141.066 447.417 141.066Z" fill="black"/>
<path d="M427.528 154.999V143.419H429.289V145.245H429.461C429.988 143.956 431.148 143.215 432.695 143.215C434.263 143.215 435.359 144.042 435.896 145.245H436.068C436.691 144.021 438.012 143.215 439.613 143.215C441.976 143.215 443.297 144.568 443.297 146.996V154.999H441.45V147.426C441.45 145.718 440.644 144.88 439.011 144.88C437.4 144.88 436.326 146.083 436.326 147.555V154.999H434.478V147.136C434.478 145.761 433.522 144.88 432.061 144.88C430.546 144.88 429.375 146.19 429.375 147.823V154.999H427.528Z" fill="black"/>
<path d="M424.267 143.418V154.998H422.505V153.183H422.334C421.754 154.472 420.518 155.202 418.746 155.202C416.146 155.202 414.793 153.655 414.793 150.916V143.418H416.64V150.465C416.64 152.549 417.414 153.516 419.261 153.516C421.302 153.516 422.42 152.302 422.42 150.271V143.418H424.267Z" fill="black"/>
<path d="M412.263 153.259V154.999H402.852V139.498H404.786V153.259H412.263Z" fill="black"/>
</svg>
