<svg width="800" height="315" viewBox="0 0 800 315" fill="none" xmlns="http://www.w3.org/2000/svg">
<rect width="800" height="315" fill="white"/>
<rect x="55.5" y="70" width="175" height="175" rx="87.5" fill="black" fill-opacity="0.0588235"/>
<path d="M170.251 153.836V155.477H164.158V153.836H170.251ZM165.859 151.092H167.857V161.972C167.857 162.434 167.924 162.782 168.059 163.016C168.198 163.245 168.377 163.399 168.596 163.479C168.814 163.558 169.05 163.598 169.304 163.598C169.488 163.598 169.645 163.588 169.774 163.568C169.903 163.543 170.005 163.523 170.08 163.508L170.46 165.216C170.336 165.261 170.159 165.308 169.93 165.358C169.707 165.412 169.423 165.44 169.08 165.44C168.538 165.445 168.021 165.34 167.529 165.127C167.037 164.908 166.634 164.575 166.321 164.127C166.013 163.68 165.859 163.116 165.859 162.434V151.092Z" fill="black"/>
<path d="M154.884 158.443V165.289H152.886V153.835H154.81V155.662H154.959C155.222 155.065 155.633 154.588 156.189 154.23C156.746 153.867 157.455 153.686 158.315 153.686C159.095 153.686 159.776 153.847 160.358 154.17C160.94 154.488 161.392 154.968 161.715 155.61C162.043 156.251 162.207 157.051 162.207 158.011V165.289H160.209V158.205C160.209 157.335 159.983 156.659 159.53 156.176C159.083 155.689 158.466 155.445 157.681 155.445C157.144 155.445 156.664 155.562 156.242 155.796C155.819 156.03 155.486 156.37 155.242 156.818C155.004 157.265 154.884 157.807 154.884 158.443Z" fill="black"/>
<path d="M145.689 165.528C144.57 165.528 143.608 165.284 142.803 164.797C141.997 164.305 141.376 163.619 140.938 162.739C140.506 161.854 140.29 160.822 140.29 159.644C140.29 158.471 140.506 157.437 140.938 156.542C141.376 155.642 141.985 154.941 142.765 154.439C143.551 153.937 144.468 153.686 145.517 153.686C146.139 153.686 146.745 153.79 147.337 153.999C147.933 154.203 148.47 154.531 148.948 154.983C149.43 155.431 149.81 156.02 150.089 156.751C150.372 157.481 150.514 158.374 150.514 159.428V160.196H141.542V158.6H148.523C148.523 157.983 148.398 157.437 148.15 156.959C147.906 156.477 147.558 156.097 147.106 155.818C146.658 155.54 146.131 155.401 145.525 155.401C144.858 155.401 144.282 155.562 143.795 155.885C143.312 156.209 142.939 156.631 142.676 157.153C142.412 157.675 142.281 158.237 142.281 158.839V159.994C142.281 160.81 142.422 161.503 142.706 162.075C142.994 162.642 143.394 163.074 143.906 163.373C144.418 163.666 145.015 163.813 145.696 163.813C146.139 163.813 146.541 163.751 146.904 163.626C147.267 163.497 147.578 163.306 147.836 163.052C148.1 162.798 148.304 162.48 148.448 162.097L150.357 162.53C150.183 163.127 149.88 163.651 149.447 164.104C149.02 164.551 148.485 164.901 147.844 165.155C147.208 165.404 146.489 165.528 145.689 165.528Z" fill="black"/>
<path d="M135.915 165.29V153.835H137.914V165.29H135.915ZM136.929 152.001C136.567 152.001 136.253 151.876 135.99 151.628C135.731 151.379 135.602 151.081 135.602 150.733C135.602 150.39 135.731 150.094 135.99 149.846C136.253 149.597 136.567 149.473 136.929 149.473C137.292 149.473 137.603 149.597 137.862 149.846C138.125 150.094 138.257 150.39 138.257 150.733C138.257 151.081 138.125 151.379 137.862 151.628C137.603 151.876 137.292 152.001 136.929 152.001Z" fill="black"/>
<path d="M133.017 150.018V165.29H131.019V150.018H133.017Z" fill="black"/>
<path d="M128.568 154.887H126.48C126.381 154.375 126.202 153.923 125.943 153.53C125.69 153.137 125.377 152.806 125.004 152.538C124.636 152.27 124.226 152.068 123.773 151.934C123.321 151.795 122.849 151.725 122.356 151.725C121.452 151.725 120.639 151.954 119.918 152.411C119.197 152.864 118.625 153.532 118.203 154.417C117.785 155.297 117.576 156.376 117.576 157.654C117.576 158.936 117.785 160.02 118.203 160.905C118.625 161.785 119.197 162.451 119.918 162.904C120.639 163.356 121.449 163.582 122.349 163.582C122.846 163.582 123.318 163.515 123.766 163.381C124.218 163.242 124.628 163.04 124.996 162.777C125.369 162.509 125.682 162.18 125.936 161.793C126.194 161.4 126.376 160.95 126.48 160.443H128.568C128.439 161.213 128.193 161.909 127.83 162.531C127.467 163.152 127.01 163.684 126.458 164.127C125.911 164.569 125.29 164.91 124.594 165.148C123.898 165.382 123.147 165.499 122.341 165.499C121.029 165.499 119.861 165.183 118.836 164.552C117.812 163.915 117.007 163.013 116.42 161.845C115.834 160.672 115.54 159.275 115.54 157.654C115.54 156.033 115.834 154.636 116.42 153.463C117.012 152.289 117.82 151.387 118.844 150.756C119.868 150.124 121.034 149.809 122.341 149.809C123.132 149.809 123.873 149.923 124.564 150.152C125.255 150.38 125.876 150.713 126.428 151.151C126.985 151.588 127.447 152.12 127.815 152.747C128.183 153.373 128.434 154.087 128.568 154.887Z" fill="black"/>
<rect x="312.5" y="70" width="175" height="175" rx="12" fill="black" fill-opacity="0.0588235"/>
<path d="M424.435 193.778V182.323H426.359V184.15H426.508C426.747 183.529 427.132 183.044 427.664 182.696C428.201 182.348 428.845 182.174 429.595 182.174C430.356 182.174 430.992 182.348 431.504 182.696C432.021 183.044 432.412 183.529 432.675 184.15H432.795C433.078 183.548 433.515 183.069 434.107 182.711C434.699 182.353 435.407 182.174 436.232 182.174C437.262 182.174 438.102 182.497 438.753 183.143C439.409 183.79 439.737 184.776 439.737 186.104V193.778H437.746V186.208C437.746 185.398 437.525 184.816 437.083 184.463C436.64 184.105 436.116 183.926 435.509 183.926C434.743 183.926 434.149 184.16 433.727 184.627C433.304 185.09 433.093 185.679 433.093 186.395V193.778H431.087V186.052C431.087 185.415 430.883 184.903 430.475 184.515C430.073 184.123 429.551 183.926 428.909 183.926C428.467 183.926 428.057 184.043 427.679 184.277C427.306 184.51 427.005 184.834 426.776 185.246C426.548 185.654 426.433 186.126 426.433 186.663V193.778H424.435Z" fill="black"/>
<path d="M416.708 193.778V182.324H418.64V184.098H418.759C418.968 183.507 419.341 183.034 419.878 182.681C420.42 182.324 421.029 182.145 421.705 182.145C421.839 182.145 422.001 182.15 422.189 182.159C422.383 182.164 422.535 182.174 422.644 182.189V184.151C422.57 184.131 422.421 184.106 422.197 184.076C421.978 184.041 421.754 184.024 421.526 184.024C420.984 184.024 420.499 184.138 420.072 184.367C419.649 184.591 419.316 184.901 419.072 185.299C418.829 185.697 418.707 186.149 418.707 186.656V193.778H416.708Z" fill="black"/>
<path d="M409.069 194.016C408.015 194.016 407.093 193.77 406.303 193.278C405.512 192.781 404.898 192.09 404.461 191.205C404.023 190.32 403.804 189.288 403.804 188.11C403.804 186.917 404.023 185.875 404.461 184.985C404.898 184.095 405.512 183.404 406.303 182.912C407.093 182.42 408.015 182.174 409.069 182.174C410.123 182.174 411.046 182.42 411.836 182.912C412.627 183.404 413.241 184.095 413.678 184.985C414.116 185.875 414.334 186.917 414.334 188.11C414.334 189.288 414.116 190.32 413.678 191.205C413.241 192.09 412.627 192.781 411.836 193.278C411.046 193.77 410.123 194.016 409.069 194.016ZM409.069 192.286C409.815 192.286 410.427 192.095 410.904 191.712C411.386 191.324 411.744 190.814 411.978 190.183C412.211 189.547 412.328 188.853 412.328 188.102C412.328 187.357 412.211 186.666 411.978 186.029C411.744 185.388 411.386 184.873 410.904 184.486C410.427 184.093 409.815 183.896 409.069 183.896C408.329 183.896 407.717 184.093 407.235 184.486C406.753 184.873 406.395 185.388 406.161 186.029C405.927 186.666 405.81 187.357 405.81 188.102C405.81 188.853 405.927 189.547 406.161 190.183C406.395 190.814 406.753 191.324 407.235 191.712C407.717 192.095 408.329 192.286 409.069 192.286Z" fill="black"/>
<path d="M402.598 182.323V183.964H396.274V182.323H402.598ZM398.086 193.778V180.869C398.086 180.183 398.24 179.614 398.548 179.161C398.861 178.704 399.269 178.361 399.771 178.132C400.278 177.903 400.82 177.789 401.397 177.789C401.839 177.789 402.207 177.824 402.501 177.893C402.799 177.963 403.02 178.028 403.164 178.087L402.642 179.758C402.548 179.723 402.421 179.686 402.262 179.646C402.103 179.601 401.902 179.579 401.658 179.579C401.096 179.579 400.691 179.721 400.442 180.004C400.199 180.282 400.077 180.69 400.077 181.227V193.778H398.086Z" fill="black"/>
<path d="M394.964 182.324V183.965H388.872V182.324H394.964ZM390.572 179.58H392.57V190.46C392.57 190.923 392.638 191.271 392.772 191.504C392.911 191.733 393.09 191.887 393.309 191.967C393.527 192.046 393.764 192.086 394.017 192.086C394.201 192.086 394.358 192.076 394.487 192.056C394.616 192.031 394.718 192.012 394.793 191.997L395.173 193.704C395.049 193.749 394.872 193.796 394.644 193.846C394.42 193.901 394.136 193.928 393.793 193.928C393.252 193.933 392.735 193.829 392.242 193.615C391.75 193.396 391.347 193.063 391.034 192.616C390.726 192.168 390.572 191.604 390.572 190.923V179.58Z" fill="black"/>
<path d="M381.467 194.039C380.742 194.039 380.083 193.902 379.491 193.628C378.905 193.355 378.437 192.96 378.089 192.443C377.746 191.921 377.575 191.284 377.575 190.534C377.575 189.882 377.701 189.35 377.955 188.938C378.214 188.52 378.557 188.192 378.984 187.953C379.412 187.715 379.886 187.536 380.409 187.416C380.931 187.297 381.46 187.205 381.997 187.14C382.688 187.051 383.247 186.981 383.675 186.932C384.107 186.882 384.423 186.8 384.622 186.686C384.821 186.571 384.92 186.375 384.92 186.096V186.037C384.92 185.346 384.729 184.809 384.346 184.426C383.963 184.043 383.389 183.852 382.623 183.852C381.828 183.852 381.204 184.026 380.752 184.374C380.299 184.722 379.981 185.102 379.797 185.515L377.918 184.978C378.191 184.282 378.572 183.73 379.059 183.322C379.551 182.91 380.1 182.616 380.707 182.442C381.318 182.263 381.942 182.174 382.579 182.174C382.991 182.174 383.446 182.224 383.943 182.323C384.44 182.417 384.913 182.604 385.36 182.882C385.813 183.156 386.186 183.561 386.479 184.098C386.772 184.63 386.919 185.331 386.919 186.201V193.778H384.95V192.219H384.861C384.731 192.487 384.525 192.763 384.242 193.047C383.958 193.325 383.588 193.561 383.13 193.755C382.673 193.944 382.119 194.039 381.467 194.039ZM381.84 192.353C382.502 192.353 383.061 192.224 383.518 191.965C383.976 191.707 384.324 191.371 384.562 190.959C384.806 190.546 384.928 190.106 384.928 189.639V188.095C384.848 188.18 384.689 188.257 384.45 188.326C384.212 188.396 383.938 188.455 383.63 188.505C383.327 188.555 383.029 188.6 382.735 188.639C382.447 188.674 382.208 188.704 382.019 188.729C381.577 188.789 381.167 188.883 380.789 189.012C380.416 189.142 380.115 189.333 379.886 189.586C379.663 189.835 379.551 190.171 379.551 190.593C379.551 191.175 379.767 191.615 380.2 191.913C380.632 192.206 381.179 192.353 381.84 192.353Z" fill="black"/>
<path d="M375.214 178.506V193.779H373.215V178.506H375.214Z" fill="black"/>
<path d="M360.263 193.779V178.506H365.573C366.761 178.506 367.74 178.722 368.511 179.155C369.286 179.587 369.863 180.174 370.241 180.915C370.619 181.65 370.808 182.478 370.808 183.398C370.808 184.318 370.619 185.148 370.241 185.889C369.863 186.629 369.289 187.219 368.518 187.656C367.748 188.089 366.768 188.305 365.58 188.305H361.859V186.508H365.446C366.231 186.508 366.865 186.371 367.347 186.097C367.83 185.824 368.18 185.454 368.399 184.986C368.623 184.519 368.735 183.99 368.735 183.398C368.735 182.801 368.623 182.272 368.399 181.809C368.18 181.342 367.827 180.977 367.34 180.713C366.853 180.445 366.211 180.311 365.416 180.311H362.344V193.779H360.263Z" fill="black"/>
<path d="M419.861 136.778V125.324H421.86V136.778H419.861ZM420.875 123.489C420.512 123.489 420.199 123.365 419.936 123.116C419.677 122.868 419.548 122.569 419.548 122.221C419.548 121.878 419.677 121.582 419.936 121.334C420.199 121.085 420.512 120.961 420.875 120.961C421.238 120.961 421.549 121.085 421.807 121.334C422.071 121.582 422.203 121.878 422.203 122.221C422.203 122.569 422.071 122.868 421.807 123.116C421.549 123.365 421.238 123.489 420.875 123.489Z" fill="black"/>
<path d="M401.676 136.778V125.323H403.6V127.15H403.749C403.987 126.529 404.373 126.044 404.905 125.696C405.442 125.348 406.085 125.174 406.836 125.174C407.597 125.174 408.233 125.348 408.745 125.696C409.262 126.044 409.652 126.529 409.916 127.15H410.035C410.319 126.548 410.756 126.069 411.348 125.711C411.939 125.353 412.648 125.174 413.473 125.174C414.502 125.174 415.342 125.497 415.994 126.143C416.65 126.79 416.978 127.776 416.978 129.104V136.778H414.987V129.208C414.987 128.398 414.766 127.816 414.323 127.463C413.881 127.105 413.356 126.926 412.75 126.926C411.984 126.926 411.39 127.16 410.967 127.627C410.545 128.09 410.334 128.679 410.334 129.395V136.778H408.328V129.052C408.328 128.415 408.124 127.903 407.716 127.515C407.313 127.123 406.791 126.926 406.15 126.926C405.707 126.926 405.297 127.043 404.92 127.277C404.547 127.51 404.246 127.834 404.017 128.246C403.788 128.654 403.674 129.126 403.674 129.663V136.778H401.676Z" fill="black"/>
<path d="M396.781 132.066V125.324H398.779V136.779H396.803V134.817H396.684C396.416 135.414 395.995 135.916 395.424 136.324C394.852 136.727 394.134 136.928 393.268 136.928C392.548 136.928 391.906 136.769 391.344 136.451C390.783 136.127 390.34 135.648 390.017 135.011C389.699 134.37 389.54 133.567 389.54 132.603V125.324H391.538V132.409C391.538 133.219 391.765 133.865 392.217 134.348C392.669 134.825 393.249 135.064 393.955 135.064C394.387 135.064 394.82 134.957 395.252 134.743C395.685 134.524 396.048 134.194 396.341 133.751C396.634 133.309 396.781 132.747 396.781 132.066Z" fill="black"/>
<path d="M378.126 136.779V121.506H380.206V134.966H387.216V136.779H378.126Z" fill="black"/>
<path fill-rule="evenodd" clip-rule="evenodd" d="M533.686 144.219L546.414 156.947C547.195 157.728 547.195 158.994 546.414 159.775L533.686 172.503C532.905 173.284 531.639 173.284 530.858 172.503C530.077 171.722 530.077 170.455 530.858 169.674L540.172 160.361H255V156.361H540.172L530.858 147.047C530.077 146.266 530.077 145 530.858 144.219C531.639 143.438 532.905 143.438 533.686 144.219Z" fill="black" fill-opacity="0.486275"/>
<rect x="569.5" y="70" width="175" height="175" rx="87.5" fill="black" fill-opacity="0.0588235"/>
<path d="M690.532 163.26V151.806H692.464V153.581H692.583C692.792 152.989 693.165 152.517 693.702 152.164C694.244 151.806 694.853 151.627 695.529 151.627C695.663 151.627 695.825 151.632 696.014 151.642C696.208 151.647 696.359 151.657 696.469 151.672V153.633C696.394 153.613 696.245 153.588 696.021 153.558C695.802 153.524 695.579 153.506 695.35 153.506C694.808 153.506 694.323 153.621 693.896 153.849C693.473 154.073 693.14 154.384 692.896 154.781C692.653 155.179 692.531 155.632 692.531 156.139V163.26H690.532Z" fill="black"/>
<path d="M683.335 163.499C682.217 163.499 681.255 163.255 680.449 162.768C679.644 162.276 679.023 161.589 678.585 160.71C678.153 159.825 677.936 158.793 677.936 157.615C677.936 156.441 678.153 155.407 678.585 154.512C679.023 153.613 679.632 152.912 680.412 152.409C681.198 151.907 682.115 151.656 683.164 151.656C683.785 151.656 684.392 151.761 684.984 151.969C685.58 152.173 686.117 152.501 686.594 152.954C687.077 153.401 687.457 153.99 687.735 154.721C688.019 155.452 688.16 156.344 688.16 157.398V158.167H679.189V156.571H686.169C686.169 155.954 686.045 155.407 685.796 154.93C685.553 154.448 685.205 154.067 684.752 153.789C684.305 153.511 683.778 153.371 683.171 153.371C682.505 153.371 681.928 153.533 681.441 153.856C680.959 154.179 680.586 154.602 680.323 155.124C680.059 155.646 679.927 156.208 679.927 156.809V157.965C679.927 158.781 680.069 159.474 680.352 160.046C680.641 160.613 681.041 161.045 681.553 161.343C682.065 161.637 682.662 161.783 683.343 161.783C683.785 161.783 684.188 161.721 684.551 161.597C684.914 161.468 685.225 161.276 685.483 161.023C685.747 160.769 685.95 160.451 686.095 160.068L688.004 160.501C687.83 161.097 687.526 161.622 687.094 162.074C686.666 162.522 686.132 162.872 685.491 163.126C684.854 163.374 684.136 163.499 683.335 163.499Z" fill="black"/>
<path d="M673.562 163.26V151.806H675.561V163.26H673.562ZM674.576 149.971C674.213 149.971 673.9 149.847 673.637 149.599C673.378 149.35 673.249 149.052 673.249 148.704C673.249 148.361 673.378 148.065 673.637 147.816C673.9 147.568 674.213 147.443 674.576 147.443C674.939 147.443 675.25 147.568 675.508 147.816C675.772 148.065 675.904 148.361 675.904 148.704C675.904 149.052 675.772 149.35 675.508 149.599C675.25 149.847 674.939 149.971 674.576 149.971Z" fill="black"/>
<path d="M670.664 147.988V163.261H668.666V147.988H670.664Z" fill="black"/>
<path d="M655.997 167.555V151.805H657.936V153.64H658.137C658.266 153.426 658.45 153.163 658.689 152.849C658.927 152.536 659.263 152.26 659.695 152.022C660.128 151.778 660.71 151.656 661.44 151.656C662.38 151.656 663.215 151.895 663.946 152.372C664.677 152.844 665.249 153.523 665.661 154.408C666.079 155.288 666.288 156.339 666.288 157.562C666.288 158.786 666.081 159.839 665.669 160.724C665.256 161.609 664.687 162.293 663.961 162.775C663.235 163.252 662.402 163.491 661.463 163.491C660.747 163.491 660.168 163.372 659.725 163.133C659.288 162.895 658.945 162.619 658.696 162.305C658.453 161.987 658.266 161.714 658.137 161.485H657.995V167.555H655.997ZM657.958 157.533C657.958 158.368 658.08 159.104 658.323 159.74C658.567 160.371 658.92 160.866 659.382 161.224C659.85 161.577 660.421 161.754 661.097 161.754C661.793 161.754 662.378 161.567 662.85 161.194C663.322 160.821 663.678 160.317 663.916 159.68C664.16 159.039 664.282 158.323 664.282 157.533C664.282 156.752 664.162 156.051 663.924 155.43C663.69 154.803 663.337 154.309 662.865 153.946C662.393 153.578 661.803 153.394 661.097 153.394C660.411 153.394 659.835 153.568 659.367 153.916C658.905 154.259 658.554 154.741 658.316 155.363C658.077 155.984 657.958 156.707 657.958 157.533Z" fill="black"/>
<path d="M643.328 167.555V151.805H645.267V153.64H645.468C645.597 153.426 645.781 153.163 646.02 152.849C646.258 152.536 646.594 152.26 647.027 152.022C647.459 151.778 648.041 151.656 648.772 151.656C649.711 151.656 650.546 151.895 651.277 152.372C652.008 152.844 652.58 153.523 652.992 154.408C653.41 155.288 653.619 156.339 653.619 157.562C653.619 158.786 653.413 159.839 653 160.724C652.587 161.609 652.018 162.293 651.292 162.775C650.566 163.252 649.734 163.491 648.794 163.491C648.078 163.491 647.499 163.372 647.056 163.133C646.619 162.895 646.276 162.619 646.027 162.305C645.784 161.987 645.597 161.714 645.468 161.485H645.326V167.555H643.328ZM645.289 157.533C645.289 158.368 645.411 159.104 645.654 159.74C645.898 160.371 646.251 160.866 646.713 161.224C647.181 161.577 647.752 161.754 648.428 161.754C649.125 161.754 649.709 161.567 650.181 161.194C650.653 160.821 651.009 160.317 651.247 159.68C651.491 159.039 651.613 158.323 651.613 157.533C651.613 156.752 651.493 156.051 651.255 155.43C651.021 154.803 650.668 154.309 650.196 153.946C649.724 153.578 649.134 153.394 648.428 153.394C647.742 153.394 647.166 153.568 646.698 153.916C646.236 154.259 645.886 154.741 645.647 155.363C645.408 155.984 645.289 156.707 645.289 157.533Z" fill="black"/>
<path d="M638.433 158.548V151.807H640.432V163.261H638.455V161.3H638.336C638.068 161.896 637.648 162.399 637.076 162.806C636.504 163.209 635.786 163.41 634.921 163.41C634.2 163.41 633.558 163.251 632.997 162.933C632.435 162.61 631.992 162.13 631.669 161.494C631.351 160.852 631.192 160.05 631.192 159.085V151.807H633.19V158.891C633.19 159.702 633.417 160.348 633.869 160.83C634.322 161.307 634.901 161.546 635.607 161.546C636.039 161.546 636.472 161.439 636.904 161.225C637.337 161.007 637.7 160.676 637.993 160.233C638.286 159.791 638.433 159.229 638.433 158.548Z" fill="black"/>
<path d="M626.502 151.903C626.418 151.172 626.072 150.606 625.466 150.203C624.859 149.8 624.106 149.599 623.206 149.599C622.555 149.599 621.988 149.703 621.506 149.912C621.029 150.116 620.656 150.399 620.387 150.762C620.124 151.125 619.992 151.535 619.992 151.993C619.987 152.381 620.077 152.714 620.261 152.992C620.45 153.265 620.691 153.494 620.984 153.678C621.277 153.862 621.588 154.014 621.916 154.133C622.249 154.252 622.562 154.349 622.856 154.424L624.377 154.827C624.82 154.936 625.289 155.09 625.787 155.289C626.289 155.483 626.761 155.741 627.203 156.064C627.646 156.388 628.009 156.795 628.292 157.287C628.576 157.78 628.717 158.376 628.717 159.077C628.717 159.922 628.499 160.681 628.061 161.352C627.624 162.018 626.987 162.547 626.152 162.94C625.322 163.328 624.315 163.522 623.132 163.522C622.013 163.522 621.044 163.343 620.223 162.985C619.408 162.627 618.769 162.125 618.307 161.479C617.844 160.827 617.586 160.062 617.531 159.182H619.642C619.691 159.748 619.878 160.216 620.201 160.584C620.529 160.952 620.949 161.227 621.461 161.411C621.973 161.59 622.528 161.68 623.124 161.68C623.805 161.68 624.412 161.57 624.944 161.352C625.481 161.128 625.903 160.82 626.212 160.427C626.525 160.034 626.681 159.577 626.681 159.055C626.681 158.573 626.547 158.18 626.279 157.877C626.01 157.573 625.65 157.325 625.197 157.131C624.75 156.937 624.255 156.768 623.713 156.624L621.871 156.102C620.663 155.764 619.706 155.274 619 154.633C618.294 153.991 617.944 153.149 617.949 152.105C617.944 151.24 618.178 150.484 618.65 149.838C619.122 149.186 619.759 148.682 620.559 148.324C621.364 147.961 622.264 147.779 623.259 147.779C624.268 147.779 625.163 147.958 625.943 148.316C626.724 148.674 627.34 149.164 627.793 149.785C628.245 150.402 628.484 151.108 628.509 151.903H626.502Z" fill="black"/>
</svg>
