<svg width="800" height="315" viewBox="0 0 800 315" fill="none" xmlns="http://www.w3.org/2000/svg">
<rect width="800" height="315" fill="white"/>
<rect x="53.5" y="70" width="175" height="175" rx="87.5" fill="black" fill-opacity="0.0588235"/>
<path d="M168.251 153.836V155.477H162.158V153.836H168.251ZM163.859 151.092H165.857V161.972C165.857 162.434 165.924 162.782 166.059 163.016C166.198 163.245 166.377 163.399 166.596 163.479C166.814 163.558 167.05 163.598 167.304 163.598C167.488 163.598 167.645 163.588 167.774 163.568C167.903 163.543 168.005 163.523 168.08 163.508L168.46 165.216C168.336 165.261 168.159 165.308 167.93 165.358C167.707 165.412 167.423 165.44 167.08 165.44C166.538 165.445 166.021 165.34 165.529 165.127C165.037 164.908 164.634 164.575 164.321 164.127C164.013 163.68 163.859 163.116 163.859 162.434V151.092Z" fill="black"/>
<path d="M152.884 158.443V165.289H150.886V153.835H152.81V155.662H152.959C153.222 155.065 153.633 154.588 154.189 154.23C154.746 153.867 155.455 153.686 156.315 153.686C157.095 153.686 157.776 153.847 158.358 154.17C158.94 154.488 159.392 154.968 159.715 155.61C160.043 156.251 160.207 157.051 160.207 158.011V165.289H158.209V158.205C158.209 157.335 157.983 156.659 157.53 156.176C157.083 155.689 156.466 155.445 155.681 155.445C155.144 155.445 154.664 155.562 154.242 155.796C153.819 156.03 153.486 156.37 153.242 156.818C153.004 157.265 152.884 157.807 152.884 158.443Z" fill="black"/>
<path d="M143.689 165.528C142.57 165.528 141.608 165.284 140.803 164.797C139.997 164.305 139.376 163.619 138.938 162.739C138.506 161.854 138.29 160.822 138.29 159.644C138.29 158.471 138.506 157.437 138.938 156.542C139.376 155.642 139.985 154.941 140.765 154.439C141.551 153.937 142.468 153.686 143.517 153.686C144.139 153.686 144.745 153.79 145.337 153.999C145.933 154.203 146.47 154.531 146.948 154.983C147.43 155.431 147.81 156.02 148.089 156.751C148.372 157.481 148.514 158.374 148.514 159.428V160.196H139.542V158.6H146.523C146.523 157.983 146.398 157.437 146.15 156.959C145.906 156.477 145.558 156.097 145.106 155.818C144.658 155.54 144.131 155.401 143.525 155.401C142.858 155.401 142.282 155.562 141.795 155.885C141.312 156.209 140.939 156.631 140.676 157.153C140.412 157.675 140.281 158.237 140.281 158.839V159.994C140.281 160.81 140.422 161.503 140.706 162.075C140.994 162.642 141.394 163.074 141.906 163.373C142.418 163.666 143.015 163.813 143.696 163.813C144.139 163.813 144.541 163.751 144.904 163.626C145.267 163.497 145.578 163.306 145.836 163.052C146.1 162.798 146.304 162.48 146.448 162.097L148.357 162.53C148.183 163.127 147.88 163.651 147.447 164.104C147.02 164.551 146.485 164.901 145.844 165.155C145.208 165.404 144.489 165.528 143.689 165.528Z" fill="black"/>
<path d="M133.915 165.29V153.835H135.914V165.29H133.915ZM134.929 152.001C134.567 152.001 134.253 151.876 133.99 151.628C133.731 151.379 133.602 151.081 133.602 150.733C133.602 150.39 133.731 150.094 133.99 149.846C134.253 149.597 134.567 149.473 134.929 149.473C135.292 149.473 135.603 149.597 135.862 149.846C136.125 150.094 136.257 150.39 136.257 150.733C136.257 151.081 136.125 151.379 135.862 151.628C135.603 151.876 135.292 152.001 134.929 152.001Z" fill="black"/>
<path d="M131.017 150.018V165.29H129.019V150.018H131.017Z" fill="black"/>
<path d="M126.568 154.887H124.48C124.381 154.375 124.202 153.923 123.943 153.53C123.69 153.137 123.377 152.806 123.004 152.538C122.636 152.27 122.226 152.068 121.773 151.934C121.321 151.795 120.849 151.725 120.356 151.725C119.452 151.725 118.639 151.954 117.918 152.411C117.197 152.864 116.625 153.532 116.203 154.417C115.785 155.297 115.576 156.376 115.576 157.654C115.576 158.936 115.785 160.02 116.203 160.905C116.625 161.785 117.197 162.451 117.918 162.904C118.639 163.356 119.449 163.582 120.349 163.582C120.846 163.582 121.318 163.515 121.766 163.381C122.218 163.242 122.628 163.04 122.996 162.777C123.369 162.509 123.682 162.18 123.936 161.793C124.194 161.4 124.376 160.95 124.48 160.443H126.568C126.439 161.213 126.193 161.909 125.83 162.531C125.467 163.152 125.01 163.684 124.458 164.127C123.911 164.569 123.29 164.91 122.594 165.148C121.898 165.382 121.147 165.499 120.341 165.499C119.029 165.499 117.861 165.183 116.836 164.552C115.812 163.915 115.007 163.013 114.42 161.845C113.834 160.672 113.54 159.275 113.54 157.654C113.54 156.033 113.834 154.636 114.42 153.463C115.012 152.289 115.82 151.387 116.844 150.756C117.868 150.124 119.034 149.809 120.341 149.809C121.132 149.809 121.873 149.923 122.564 150.152C123.255 150.38 123.876 150.713 124.428 151.151C124.985 151.588 125.447 152.12 125.815 152.747C126.183 153.373 126.434 154.087 126.568 154.887Z" fill="black"/>
<path fill-rule="evenodd" clip-rule="evenodd" d="M277.186 143.357L289.914 156.085C290.695 156.866 290.695 158.133 289.914 158.914L277.186 171.642C276.405 172.423 275.139 172.423 274.358 171.642C273.577 170.86 273.577 169.594 274.358 168.813L283.672 159.499H250.5V155.499H283.672L274.358 146.186C273.577 145.405 273.577 144.138 274.358 143.357C275.139 142.576 276.405 142.576 277.186 143.357Z" fill="black" fill-opacity="0.486275"/>
<rect x="312.5" y="70" width="175" height="175" rx="12" fill="black" fill-opacity="0.0588235"/>
<path d="M410.134 182.284V171.23H411.815V172.973H411.979C412.482 171.743 413.589 171.035 415.066 171.035C416.563 171.035 417.609 171.825 418.122 172.973H418.286C418.88 171.804 420.142 171.035 421.669 171.035C423.925 171.035 425.187 172.327 425.187 174.645V182.284H423.423V175.055C423.423 173.424 422.654 172.625 421.095 172.625C419.557 172.625 418.532 173.773 418.532 175.178V182.284H416.768V174.778C416.768 173.465 415.855 172.625 414.461 172.625C413.015 172.625 411.897 173.875 411.897 175.434V182.284H410.134Z" fill="black"/>
<path d="M402.161 180.93C403.976 180.93 405.319 179.741 405.319 178.162V177.146L402.346 177.341C400.664 177.454 399.926 178.039 399.926 179.146C399.926 180.274 400.879 180.93 402.161 180.93ZM401.833 182.479C399.69 182.479 398.101 181.207 398.101 179.187C398.101 177.208 399.557 176.07 402.13 175.916L405.319 175.721V174.716C405.319 173.353 404.468 172.604 402.817 172.604C401.495 172.604 400.572 173.106 400.326 173.978H398.542C398.777 172.204 400.521 171.035 402.879 171.035C405.576 171.035 407.083 172.419 407.083 174.716V182.284H405.401V180.653H405.237C404.52 181.833 403.31 182.479 401.833 182.479Z" fill="black"/>
<path d="M391.379 172.594C389.615 172.594 388.385 173.886 388.251 175.844H394.342C394.301 173.886 393.132 172.594 391.379 172.594ZM394.291 179.423H396.055C395.521 181.32 393.819 182.479 391.399 182.479C388.333 182.479 386.416 180.264 386.416 176.767C386.416 173.291 388.364 171.035 391.399 171.035C394.383 171.035 396.198 173.158 396.198 176.593V177.27H388.251V177.352C388.344 179.536 389.564 180.92 391.44 180.92C392.866 180.92 393.83 180.397 394.291 179.423Z" fill="black"/>
<path d="M381.427 182.285H379.582V169.149H374.813V167.488H386.195V169.149H381.427V182.285Z" fill="black"/>
<path d="M420.336 148.284V137.23H422.1V148.284H420.336ZM421.218 134.984C420.542 134.984 419.988 134.431 419.988 133.754C419.988 133.077 420.542 132.523 421.218 132.523C421.895 132.523 422.449 133.077 422.449 133.754C422.449 134.431 421.895 134.984 421.218 134.984Z" fill="black"/>
<path d="M402.233 148.284V137.23H403.915V138.973H404.079C404.581 137.743 405.688 137.035 407.165 137.035C408.662 137.035 409.708 137.825 410.221 138.973H410.385C410.979 137.804 412.241 137.035 413.769 137.035C416.024 137.035 417.286 138.327 417.286 140.645V148.284H415.522V141.055C415.522 139.424 414.753 138.625 413.194 138.625C411.656 138.625 410.631 139.773 410.631 141.178V148.284H408.867V140.778C408.867 139.465 407.955 138.625 406.56 138.625C405.114 138.625 403.997 139.875 403.997 141.434V148.284H402.233Z" fill="black"/>
<path d="M399.121 137.23V148.284H397.439V146.551H397.275C396.721 147.782 395.542 148.479 393.85 148.479C391.369 148.479 390.077 147.002 390.077 144.388V137.23H391.84V143.957C391.84 145.946 392.579 146.869 394.342 146.869C396.291 146.869 397.357 145.71 397.357 143.772V137.23H399.121Z" fill="black"/>
<path d="M387.662 146.624V148.285H378.679V133.488H380.525V146.624H387.662Z" fill="black"/>
<path fill-rule="evenodd" clip-rule="evenodd" d="M536.186 143.357L548.914 156.085C549.695 156.866 549.695 158.133 548.914 158.914L536.186 171.642C535.405 172.423 534.139 172.423 533.358 171.642C532.577 170.86 532.577 169.594 533.358 168.813L542.672 159.499H509.5V155.499H542.672L533.358 146.186C532.577 145.405 532.577 144.138 533.358 143.357C534.139 142.576 535.405 142.576 536.186 143.357Z" fill="black" fill-opacity="0.486275"/>
<rect x="571.5" y="70" width="175" height="175" rx="87.5" fill="black" fill-opacity="0.0588235"/>
<path d="M692.532 163.26V151.806H694.464V153.581H694.583C694.792 152.989 695.165 152.517 695.702 152.164C696.244 151.806 696.853 151.627 697.529 151.627C697.663 151.627 697.825 151.632 698.014 151.642C698.208 151.647 698.359 151.657 698.469 151.672V153.633C698.394 153.613 698.245 153.588 698.021 153.558C697.802 153.524 697.579 153.506 697.35 153.506C696.808 153.506 696.323 153.621 695.896 153.849C695.473 154.073 695.14 154.384 694.896 154.781C694.653 155.179 694.531 155.632 694.531 156.139V163.26H692.532Z" fill="black"/>
<path d="M685.335 163.499C684.217 163.499 683.255 163.255 682.449 162.768C681.644 162.276 681.023 161.589 680.585 160.71C680.153 159.825 679.936 158.793 679.936 157.615C679.936 156.441 680.153 155.407 680.585 154.512C681.023 153.613 681.632 152.912 682.412 152.409C683.198 151.907 684.115 151.656 685.164 151.656C685.785 151.656 686.392 151.761 686.984 151.969C687.58 152.173 688.117 152.501 688.594 152.954C689.077 153.401 689.457 153.99 689.735 154.721C690.019 155.452 690.16 156.344 690.16 157.398V158.167H681.189V156.571H688.169C688.169 155.954 688.045 155.407 687.796 154.93C687.553 154.448 687.205 154.067 686.752 153.789C686.305 153.511 685.778 153.371 685.171 153.371C684.505 153.371 683.928 153.533 683.441 153.856C682.959 154.179 682.586 154.602 682.323 155.124C682.059 155.646 681.927 156.208 681.927 156.809V157.965C681.927 158.781 682.069 159.474 682.352 160.046C682.641 160.613 683.041 161.045 683.553 161.343C684.065 161.637 684.662 161.783 685.343 161.783C685.785 161.783 686.188 161.721 686.551 161.597C686.914 161.468 687.225 161.276 687.483 161.023C687.747 160.769 687.95 160.451 688.095 160.068L690.004 160.501C689.83 161.097 689.526 161.622 689.094 162.074C688.666 162.522 688.132 162.872 687.491 163.126C686.854 163.374 686.136 163.499 685.335 163.499Z" fill="black"/>
<path d="M675.562 163.26V151.806H677.561V163.26H675.562ZM676.576 149.971C676.213 149.971 675.9 149.847 675.637 149.599C675.378 149.35 675.249 149.052 675.249 148.704C675.249 148.361 675.378 148.065 675.637 147.816C675.9 147.568 676.213 147.443 676.576 147.443C676.939 147.443 677.25 147.568 677.508 147.816C677.772 148.065 677.904 148.361 677.904 148.704C677.904 149.052 677.772 149.35 677.508 149.599C677.25 149.847 676.939 149.971 676.576 149.971Z" fill="black"/>
<path d="M672.664 147.988V163.261H670.666V147.988H672.664Z" fill="black"/>
<path d="M657.997 167.555V151.805H659.936V153.64H660.137C660.266 153.426 660.45 153.163 660.689 152.849C660.927 152.536 661.263 152.26 661.695 152.022C662.128 151.778 662.71 151.656 663.44 151.656C664.38 151.656 665.215 151.895 665.946 152.372C666.677 152.844 667.249 153.523 667.661 154.408C668.079 155.288 668.288 156.339 668.288 157.562C668.288 158.786 668.081 159.839 667.669 160.724C667.256 161.609 666.687 162.293 665.961 162.775C665.235 163.252 664.402 163.491 663.463 163.491C662.747 163.491 662.168 163.372 661.725 163.133C661.288 162.895 660.945 162.619 660.696 162.305C660.453 161.987 660.266 161.714 660.137 161.485H659.995V167.555H657.997ZM659.958 157.533C659.958 158.368 660.08 159.104 660.323 159.74C660.567 160.371 660.92 160.866 661.382 161.224C661.85 161.577 662.421 161.754 663.097 161.754C663.793 161.754 664.378 161.567 664.85 161.194C665.322 160.821 665.678 160.317 665.916 159.68C666.16 159.039 666.282 158.323 666.282 157.533C666.282 156.752 666.162 156.051 665.924 155.43C665.69 154.803 665.337 154.309 664.865 153.946C664.393 153.578 663.803 153.394 663.097 153.394C662.411 153.394 661.835 153.568 661.367 153.916C660.905 154.259 660.554 154.741 660.316 155.363C660.077 155.984 659.958 156.707 659.958 157.533Z" fill="black"/>
<path d="M645.328 167.555V151.805H647.267V153.64H647.468C647.597 153.426 647.781 153.163 648.02 152.849C648.258 152.536 648.594 152.26 649.027 152.022C649.459 151.778 650.041 151.656 650.772 151.656C651.711 151.656 652.546 151.895 653.277 152.372C654.008 152.844 654.58 153.523 654.992 154.408C655.41 155.288 655.619 156.339 655.619 157.562C655.619 158.786 655.413 159.839 655 160.724C654.587 161.609 654.018 162.293 653.292 162.775C652.566 163.252 651.734 163.491 650.794 163.491C650.078 163.491 649.499 163.372 649.056 163.133C648.619 162.895 648.276 162.619 648.027 162.305C647.784 161.987 647.597 161.714 647.468 161.485H647.326V167.555H645.328ZM647.289 157.533C647.289 158.368 647.411 159.104 647.654 159.74C647.898 160.371 648.251 160.866 648.713 161.224C649.181 161.577 649.752 161.754 650.428 161.754C651.125 161.754 651.709 161.567 652.181 161.194C652.653 160.821 653.009 160.317 653.247 159.68C653.491 159.039 653.613 158.323 653.613 157.533C653.613 156.752 653.493 156.051 653.255 155.43C653.021 154.803 652.668 154.309 652.196 153.946C651.724 153.578 651.134 153.394 650.428 153.394C649.742 153.394 649.166 153.568 648.698 153.916C648.236 154.259 647.886 154.741 647.647 155.363C647.408 155.984 647.289 156.707 647.289 157.533Z" fill="black"/>
<path d="M640.433 158.548V151.807H642.432V163.261H640.455V161.3H640.336C640.068 161.896 639.648 162.399 639.076 162.806C638.504 163.209 637.786 163.41 636.921 163.41C636.2 163.41 635.558 163.251 634.997 162.933C634.435 162.61 633.992 162.13 633.669 161.494C633.351 160.852 633.192 160.05 633.192 159.085V151.807H635.19V158.891C635.19 159.702 635.417 160.348 635.869 160.83C636.322 161.307 636.901 161.546 637.607 161.546C638.039 161.546 638.472 161.439 638.904 161.225C639.337 161.007 639.7 160.676 639.993 160.233C640.286 159.791 640.433 159.229 640.433 158.548Z" fill="black"/>
<path d="M628.502 151.903C628.418 151.172 628.072 150.606 627.466 150.203C626.859 149.8 626.106 149.599 625.206 149.599C624.555 149.599 623.988 149.703 623.506 149.912C623.029 150.116 622.656 150.399 622.387 150.762C622.124 151.125 621.992 151.535 621.992 151.993C621.987 152.381 622.077 152.714 622.261 152.992C622.45 153.265 622.691 153.494 622.984 153.678C623.277 153.862 623.588 154.014 623.916 154.133C624.249 154.252 624.562 154.349 624.856 154.424L626.377 154.827C626.82 154.936 627.289 155.09 627.787 155.289C628.289 155.483 628.761 155.741 629.203 156.064C629.646 156.388 630.009 156.795 630.292 157.287C630.576 157.78 630.717 158.376 630.717 159.077C630.717 159.922 630.499 160.681 630.061 161.352C629.624 162.018 628.987 162.547 628.152 162.94C627.322 163.328 626.315 163.522 625.132 163.522C624.013 163.522 623.044 163.343 622.223 162.985C621.408 162.627 620.769 162.125 620.307 161.479C619.844 160.827 619.586 160.062 619.531 159.182H621.642C621.691 159.748 621.878 160.216 622.201 160.584C622.529 160.952 622.949 161.227 623.461 161.411C623.973 161.59 624.528 161.68 625.124 161.68C625.805 161.68 626.412 161.57 626.944 161.352C627.481 161.128 627.903 160.82 628.212 160.427C628.525 160.034 628.681 159.577 628.681 159.055C628.681 158.573 628.547 158.18 628.279 157.877C628.01 157.573 627.65 157.325 627.197 157.131C626.75 156.937 626.255 156.768 625.713 156.624L623.871 156.102C622.663 155.764 621.706 155.274 621 154.633C620.294 153.991 619.944 153.149 619.949 152.105C619.944 151.24 620.178 150.484 620.65 149.838C621.122 149.186 621.759 148.682 622.559 148.324C623.364 147.961 624.264 147.779 625.259 147.779C626.268 147.779 627.163 147.958 627.943 148.316C628.724 148.674 629.34 149.164 629.793 149.785C630.245 150.402 630.484 151.108 630.509 151.903H628.502Z" fill="black"/>
</svg>
