<svg width="405" height="842" viewBox="0 0 405 842" fill="none" xmlns="http://www.w3.org/2000/svg">
<rect x="147.5" y="26.33" width="125" height="36.67" rx="18.335" fill="black"/>
<path fill-rule="evenodd" clip-rule="evenodd" d="M286.48 15H118.52C96.089 15 79.9882 15.0112 67.448 16.2369C55.0638 17.4473 47.2195 19.7666 40.9937 23.7176C34.0337 28.1346 28.1346 34.0337 23.7176 40.9937C19.7666 47.2195 17.4473 55.0638 16.2369 67.448C15.0112 79.9882 15 96.089 15 118.52V723.48C15 745.911 15.0112 762.012 16.2369 774.552C17.4473 786.936 19.7666 794.781 23.7176 801.006C28.1346 807.966 34.0337 813.865 40.9937 818.282C47.2195 822.233 55.0638 824.553 67.448 825.763C79.9882 826.989 96.089 827 118.52 827H286.48C308.911 827 325.012 826.989 337.552 825.763C349.936 824.553 357.781 822.233 364.006 818.282C370.966 813.865 376.865 807.966 381.282 801.006C385.233 794.781 387.553 786.936 388.763 774.552C389.989 762.012 390 745.911 390 723.48V118.52C390 96.089 389.989 79.9882 388.763 67.448C387.553 55.0638 385.233 47.2195 381.282 40.9937C376.865 34.0337 370.966 28.1346 364.006 23.7176C357.781 19.7666 349.936 17.4473 337.552 16.2369C325.012 15.0112 308.911 15 286.48 15ZM15.2744 35.6354C5 51.8252 5 74.0568 5 118.52V723.48C5 767.943 5 790.175 15.2744 806.365C20.4801 814.567 27.4325 821.52 35.6354 826.726C51.8252 837 74.0568 837 118.52 837H286.48C330.943 837 353.175 837 369.365 826.726C377.567 821.52 384.52 814.567 389.726 806.365C400 790.175 400 767.943 400 723.48V118.52C400 74.0568 400 51.8252 389.726 35.6354C384.52 27.4325 377.567 20.4801 369.365 15.2744C353.175 5 330.943 5 286.48 5H118.52C74.0568 5 51.8252 5 35.6354 15.2744C27.4325 20.4801 20.4801 27.4325 15.2744 35.6354Z" fill="black"/>
<path fill-rule="evenodd" clip-rule="evenodd" d="M282.88 5H122.12C98.1045 5 80.4541 5.00558 66.6188 6.35788C52.8615 7.70255 43.409 10.3411 35.6354 15.2744C27.4325 20.4801 20.4801 27.4325 15.2744 35.6354C10.3411 43.409 7.70255 52.8615 6.35788 66.6188C5.00558 80.4541 5 98.1045 5 122.12V719.88C5 743.896 5.00558 761.546 6.35788 775.381C7.70255 789.138 10.3411 798.591 15.2744 806.365C20.4801 814.567 27.4325 821.52 35.6354 826.726C43.409 831.659 52.8615 834.297 66.6188 835.642C80.4541 836.994 98.1045 837 122.12 837H282.88C306.896 837 324.546 836.994 338.381 835.642C352.138 834.297 361.591 831.659 369.365 826.726C377.567 821.52 384.52 814.567 389.726 806.365C394.659 798.591 397.297 789.138 398.642 775.381C399.994 761.546 400 743.896 400 719.88V122.12C400 98.1045 399.994 80.4541 398.642 66.6188C397.297 52.8615 394.659 43.409 389.726 35.6354C384.52 27.4325 377.567 20.4801 369.365 15.2744C361.591 10.3411 352.138 7.70255 338.381 6.35788C324.546 5.00558 306.896 5 282.88 5ZM11.0527 32.9563C0 50.3726 0 74.2884 0 122.12V719.88C0 767.712 0 791.627 11.0527 809.044C16.6528 817.868 24.132 825.347 32.9563 830.947C50.3726 842 74.2884 842 122.12 842H282.88C330.712 842 354.627 842 372.044 830.947C380.868 825.347 388.347 817.868 393.947 809.044C405 791.627 405 767.712 405 719.88V122.12C405 74.2884 405 50.3726 393.947 32.9563C388.347 24.132 380.868 16.6528 372.044 11.0527C354.627 0 330.712 0 282.88 0H122.12C74.2884 0 50.3726 0 32.9563 11.0527C24.132 16.6528 16.6528 24.132 11.0527 32.9563Z" fill="#BDB8AF" fill-opacity="0.62"/>
<path opacity="0.35" fill-rule="evenodd" clip-rule="evenodd" d="M354.7 38.6H342.7C341.661 38.6 340.933 38.6005 340.362 38.6404C339.801 38.6795 339.467 38.7532 339.209 38.8628C338.423 39.197 337.797 39.823 337.463 40.6093C337.353 40.8674 337.28 41.2008 337.24 41.762C337.201 42.3325 337.2 43.0607 337.2 44.1C337.2 45.1392 337.201 45.8674 337.24 46.4379C337.28 46.9991 337.353 47.3325 337.463 47.5906C337.797 48.3769 338.423 49.003 339.209 49.3371C339.467 49.4468 339.801 49.5204 340.362 49.5596C340.933 49.5994 341.661 49.6 342.7 49.6H354.7C355.739 49.6 356.467 49.5994 357.038 49.5596C357.599 49.5204 357.933 49.4468 358.191 49.3371C358.977 49.003 359.603 48.3769 359.937 47.5906C360.047 47.3325 360.12 46.9991 360.16 46.4379C360.199 45.8674 360.2 45.1392 360.2 44.1C360.2 43.0607 360.199 42.3325 360.16 41.762C360.12 41.2008 360.047 40.8674 359.937 40.6093C359.603 39.823 358.977 39.197 358.191 38.8628C357.933 38.7532 357.599 38.6795 357.038 38.6404C356.467 38.6005 355.739 38.6 354.7 38.6ZM336.543 40.2182C336.2 41.0242 336.2 42.0495 336.2 44.1C336.2 46.1505 336.2 47.1757 336.543 47.9817C336.978 49.0063 337.794 49.8221 338.818 50.2575C339.624 50.6 340.65 50.6 342.7 50.6H354.7C356.751 50.6 357.776 50.6 358.582 50.2575C359.606 49.8221 360.422 49.0063 360.858 47.9817C361.2 47.1757 361.2 46.1505 361.2 44.1C361.2 42.0495 361.2 41.0242 360.858 40.2182C360.422 39.1937 359.606 38.3779 358.582 37.9425C357.776 37.6 356.751 37.6 354.7 37.6H342.7C340.65 37.6 339.624 37.6 338.818 37.9425C337.794 38.3779 336.978 39.1937 336.543 40.2182Z" fill="black"/>
<path opacity="0.4" d="M362.1 42.2667V46.2667C362.905 45.9279 363.428 45.1398 363.428 44.2667C363.428 43.3935 362.905 42.6054 362.1 42.2667" fill="black"/>
<rect x="338.2" y="39.6" width="21" height="9" rx="2.5" fill="black"/>
<path fill-rule="evenodd" clip-rule="evenodd" d="M323.74 40.6206C326.113 40.6207 328.395 41.5257 330.115 43.1485C330.245 43.2738 330.452 43.2722 330.579 43.145L331.817 41.9049C331.882 41.8404 331.918 41.7529 331.918 41.662C331.917 41.571 331.88 41.484 331.815 41.4202C327.3 37.1265 320.178 37.1265 315.664 41.4202C315.599 41.484 315.562 41.5709 315.561 41.6619C315.56 41.7529 315.596 41.8403 315.661 41.9049L316.899 43.145C317.027 43.2724 317.234 43.274 317.363 43.1485C319.084 41.5256 321.366 40.6206 323.74 40.6206ZM323.738 44.7627C325.033 44.7626 326.282 45.2649 327.242 46.1719C327.372 46.3006 327.577 46.2978 327.703 46.1656L328.931 44.8707C328.996 44.8028 329.032 44.7107 329.031 44.6149C329.03 44.5192 328.993 44.4278 328.927 44.3613C326.003 41.524 321.476 41.524 318.552 44.3613C318.486 44.4278 318.448 44.5192 318.447 44.615C318.447 44.7108 318.483 44.8029 318.547 44.8707L319.775 46.1656C319.902 46.2978 320.107 46.3006 320.236 46.1719C321.196 45.2655 322.444 44.7632 323.738 44.7627ZM326.145 47.5045C326.146 47.6079 326.111 47.7076 326.047 47.78L323.97 50.1893C323.909 50.2601 323.826 50.2999 323.739 50.2999C323.653 50.2999 323.57 50.2601 323.509 50.1893L321.432 47.78C321.367 47.7075 321.332 47.6078 321.334 47.5044C321.336 47.401 321.375 47.3031 321.442 47.2338C322.768 45.9442 324.711 45.9442 326.037 47.2338C326.104 47.3032 326.143 47.4011 326.145 47.5045Z" fill="black"/>
<path fill-rule="evenodd" clip-rule="evenodd" d="M308.405 39.225C308.405 38.6037 307.949 38.1 307.387 38.1H306.369C305.807 38.1 305.351 38.6037 305.351 39.225V48.975C305.351 49.5963 305.807 50.1 306.369 50.1H307.387C307.949 50.1 308.405 49.5963 308.405 48.975V39.225ZM301.312 40.5H302.33C302.892 40.5 303.347 41.0157 303.347 41.652V48.948C303.347 49.5842 302.892 50.1 302.33 50.1H301.312C300.75 50.1 300.294 49.5842 300.294 48.948V41.652C300.294 41.0157 300.75 40.5 301.312 40.5ZM297.177 43.1H296.159C295.597 43.1 295.141 43.6223 295.141 44.2666V48.9333C295.141 49.5776 295.597 50.1 296.159 50.1H297.177C297.739 50.1 298.195 49.5776 298.195 48.9333V44.2666C298.195 43.6223 297.739 43.1 297.177 43.1ZM292.12 45.5H291.102C290.54 45.5 290.084 46.0148 290.084 46.65V48.95C290.084 49.5851 290.54 50.1 291.102 50.1H292.12C292.682 50.1 293.137 49.5851 293.137 48.95V46.65C293.137 46.0148 292.682 45.5 292.12 45.5Z" fill="black"/>
<path d="M98.8291 50.7988C97.8773 50.7988 97.061 50.5443 96.3804 50.0352C95.7052 49.526 95.1851 48.8011 94.8198 47.8604C94.4546 46.9196 94.272 45.8045 94.272 44.5151V44.4985C94.272 43.2091 94.4546 42.0968 94.8198 41.1616C95.1851 40.2209 95.7052 39.4959 96.3804 38.9868C97.061 38.4777 97.8773 38.2231 98.8291 38.2231C99.7809 38.2231 100.597 38.4777 101.278 38.9868C101.958 39.4959 102.481 40.2209 102.847 41.1616C103.212 42.0968 103.395 43.2091 103.395 44.4985V44.5151C103.395 45.8045 103.212 46.9196 102.847 47.8604C102.481 48.8011 101.958 49.526 101.278 50.0352C100.597 50.5443 99.7809 50.7988 98.8291 50.7988ZM98.8291 49.064C99.3382 49.064 99.7726 48.8813 100.132 48.5161C100.492 48.1509 100.766 47.6307 100.954 46.9556C101.148 46.2749 101.245 45.4614 101.245 44.5151V44.4985C101.245 43.5522 101.148 42.7415 100.954 42.0664C100.766 41.3857 100.492 40.8656 100.132 40.5059C99.7726 40.1406 99.3382 39.958 98.8291 39.958C98.32 39.958 97.8856 40.1406 97.5259 40.5059C97.1717 40.8656 96.8978 41.3857 96.7041 42.0664C96.516 42.7415 96.4219 43.5522 96.4219 44.4985V44.5151C96.4219 45.4614 96.516 46.2749 96.7041 46.9556C96.8978 47.6307 97.1717 48.1509 97.5259 48.5161C97.8856 48.8813 98.32 49.064 98.8291 49.064Z" fill="black"/>
<path d="M83.7549 50.5V49.0557L87.6812 45.0381C88.2235 44.4902 88.644 44.0392 88.9429 43.6851C89.2472 43.3254 89.4603 43.0099 89.582 42.7388C89.7038 42.4621 89.7646 42.1715 89.7646 41.8672V41.8423C89.7646 41.4771 89.6844 41.1506 89.5239 40.8628C89.3634 40.575 89.1338 40.3509 88.835 40.1904C88.5361 40.0244 88.1792 39.9414 87.7642 39.9414C87.3436 39.9414 86.9728 40.0299 86.6519 40.207C86.3309 40.3786 86.0819 40.6193 85.9048 40.9292C85.7277 41.2391 85.6392 41.6016 85.6392 42.0166L85.6309 42.0498L83.6387 42.0415L83.6304 42.0166C83.6304 41.2695 83.8102 40.611 84.1699 40.041C84.5296 39.471 85.0277 39.0256 85.6641 38.7046C86.3005 38.3836 87.0365 38.2231 87.8721 38.2231C88.6468 38.2231 89.3358 38.3698 89.939 38.6631C90.5477 38.9564 91.0236 39.3604 91.3667 39.875C91.7098 40.3896 91.8813 40.9845 91.8813 41.6597V41.6846C91.8813 42.1328 91.7956 42.5728 91.624 43.0044C91.4525 43.4305 91.1592 43.8981 90.7441 44.4072C90.3346 44.9163 89.7674 45.5223 89.0425 46.2251L86.0791 49.1055L86.6436 48.1592V49.1055L86.0791 48.7319H92.064V50.5H83.7549Z" fill="black"/>
<path d="M79.646 48.8896C79.2697 48.8896 78.9543 48.7651 78.6997 48.5161C78.4507 48.2616 78.3262 47.9517 78.3262 47.5864C78.3262 47.2157 78.4507 46.9058 78.6997 46.6567C78.9543 46.4022 79.2697 46.2749 79.646 46.2749C80.0278 46.2749 80.3433 46.4022 80.5923 46.6567C80.8413 46.9058 80.9658 47.2157 80.9658 47.5864C80.9658 47.9517 80.8413 48.2616 80.5923 48.5161C80.3433 48.7651 80.0278 48.8896 79.646 48.8896ZM79.646 42.7305C79.2697 42.7305 78.9543 42.606 78.6997 42.3569C78.4507 42.1024 78.3262 41.7925 78.3262 41.4272C78.3262 41.0565 78.4507 40.7466 78.6997 40.4976C78.9543 40.243 79.2697 40.1157 79.646 40.1157C80.0278 40.1157 80.3433 40.243 80.5923 40.4976C80.8413 40.7466 80.9658 41.0565 80.9658 41.4272C80.9658 41.7925 80.8413 42.1024 80.5923 42.3569C80.3433 42.606 80.0278 42.7305 79.646 42.7305Z" fill="black"/>
<path d="M71.3369 50.7988C70.7005 50.7988 70.0946 50.6826 69.519 50.4502C68.9435 50.2122 68.4316 49.847 67.9834 49.3545C67.5407 48.8564 67.1921 48.2228 66.9375 47.4536C66.6829 46.6789 66.5557 45.7492 66.5557 44.6646V44.6479C66.5557 43.3032 66.7493 42.1522 67.1367 41.1948C67.5241 40.2319 68.0775 39.4959 68.7969 38.9868C69.5218 38.4777 70.3851 38.2231 71.3867 38.2231C72.1172 38.2231 72.7785 38.3587 73.3706 38.6299C73.9627 38.8955 74.4525 39.2635 74.8398 39.7339C75.2272 40.2043 75.4845 40.7466 75.6118 41.3608L75.6284 41.4521H73.5283L73.4951 41.3691C73.39 41.0869 73.2378 40.8434 73.0386 40.6387C72.8449 40.4284 72.6069 40.2679 72.3247 40.1572C72.048 40.041 71.7354 39.9829 71.3867 39.9829C70.7503 39.9829 70.2301 40.1711 69.8262 40.5474C69.4277 40.9181 69.1289 41.4162 68.9297 42.0415C68.736 42.6668 68.6226 43.3641 68.5894 44.1333C68.5838 44.2108 68.5811 44.291 68.5811 44.374C68.5811 44.4515 68.5811 44.5317 68.5811 44.6147L68.9546 46.6152C68.9546 47.069 69.0597 47.4813 69.27 47.8521C69.4803 48.2228 69.7653 48.5161 70.125 48.7319C70.4847 48.9478 70.8831 49.0557 71.3203 49.0557C71.763 49.0557 72.1642 48.9505 72.5239 48.7402C72.8836 48.5244 73.1686 48.2367 73.3789 47.877C73.5892 47.5117 73.6943 47.1077 73.6943 46.665V46.6484C73.6943 46.1836 73.592 45.7741 73.3872 45.4199C73.188 45.0602 72.9113 44.778 72.5571 44.5732C72.203 44.3685 71.799 44.2661 71.3452 44.2661C70.897 44.2661 70.4902 44.3657 70.125 44.5649C69.7653 44.7642 69.4803 45.0409 69.27 45.395C69.0597 45.7492 68.9546 46.1504 68.9546 46.5986V46.6152H68.4565V44.4072H68.7471C68.8965 44.0918 69.1095 43.7985 69.3862 43.5273C69.6685 43.2562 70.0171 43.0376 70.4321 42.8716C70.8472 42.7056 71.3258 42.6226 71.8682 42.6226C72.6374 42.6226 73.3153 42.7941 73.9019 43.1372C74.494 43.4803 74.9561 43.9507 75.2881 44.5483C75.6201 45.1405 75.7861 45.8156 75.7861 46.5737V46.5903C75.7861 47.4038 75.5952 48.126 75.2134 48.7568C74.8315 49.3877 74.3058 49.8857 73.6362 50.251C72.9722 50.6162 72.2057 50.7988 71.3369 50.7988Z" fill="black"/>
<rect x="127" y="814" width="152" height="5" rx="2.5" fill="#0D0D0D"/>
</svg>
