<svg width="405" height="842" viewBox="0 0 405 842" fill="none" xmlns="http://www.w3.org/2000/svg">
<path fill-rule="evenodd" clip-rule="evenodd" d="M11.0527 32.9563C9.53674e-07 50.3726 0 74.2884 0 122.12V719.88C0 767.712 9.53674e-07 791.627 11.0527 809.044C16.6528 817.868 24.132 825.347 32.9563 830.947C50.3726 842 74.2884 842 122.12 842H282.88C330.712 842 354.627 842 372.044 830.947C380.868 825.347 388.347 817.868 393.947 809.044C405 791.627 405 767.712 405 719.88V122.12C405 74.2884 405 50.3726 393.947 32.9563C388.347 24.132 380.868 16.6528 372.044 11.0527C354.627 0 330.712 0 282.88 0H122.12C74.2884 0 50.3726 0 32.9563 11.0527C24.132 16.6528 16.6528 24.132 11.0527 32.9563Z" fill="#BDB8AF" fill-opacity="0.62"/>
</svg>
