<svg width="375" height="812" viewBox="0 0 375 812" fill="none" xmlns="http://www.w3.org/2000/svg">
<path opacity="0.35" fill-rule="evenodd" clip-rule="evenodd" d="M339.7 23.6H327.7C326.661 23.6 325.932 23.6005 325.362 23.6404C324.801 23.6795 324.467 23.7532 324.209 23.8628C323.423 24.197 322.797 24.823 322.463 25.6093C322.353 25.8674 322.28 26.2008 322.24 26.762C322.201 27.3325 322.2 28.0607 322.2 29.1C322.2 30.1392 322.201 30.8674 322.24 31.4379C322.28 31.9991 322.353 32.3325 322.463 32.5906C322.797 33.3769 323.423 34.003 324.209 34.3371C324.467 34.4468 324.801 34.5204 325.362 34.5596C325.932 34.5994 326.661 34.6 327.7 34.6H339.7C340.739 34.6 341.467 34.5994 342.038 34.5596C342.599 34.5204 342.933 34.4468 343.191 34.3371C343.977 34.003 344.603 33.3769 344.937 32.5906C345.047 32.3325 345.12 31.9991 345.16 31.4379C345.199 30.8674 345.2 30.1392 345.2 29.1C345.2 28.0607 345.199 27.3325 345.16 26.762C345.12 26.2008 345.047 25.8674 344.937 25.6093C344.603 24.823 343.977 24.197 343.191 23.8628C342.933 23.7532 342.599 23.6795 342.038 23.6404C341.467 23.6005 340.739 23.6 339.7 23.6ZM321.542 25.2182C321.2 26.0242 321.2 27.0495 321.2 29.1C321.2 31.1505 321.2 32.1757 321.542 32.9817C321.978 34.0063 322.794 34.8221 323.818 35.2575C324.624 35.6 325.649 35.6 327.7 35.6H339.7C341.75 35.6 342.776 35.6 343.582 35.2575C344.606 34.8221 345.422 34.0063 345.857 32.9817C346.2 32.1757 346.2 31.1505 346.2 29.1C346.2 27.0495 346.2 26.0242 345.857 25.2182C345.422 24.1937 344.606 23.3779 343.582 22.9425C342.776 22.6 341.75 22.6 339.7 22.6H327.7C325.649 22.6 324.624 22.6 323.818 22.9425C322.794 23.3779 321.978 24.1937 321.542 25.2182Z" fill="black"/>
<path opacity="0.4" d="M347.1 27.2667V31.2667C347.905 30.9279 348.428 30.1398 348.428 29.2667C348.428 28.3935 347.905 27.6054 347.1 27.2667" fill="black"/>
<rect x="323.2" y="24.6" width="21" height="9" rx="2.5" fill="black"/>
<path fill-rule="evenodd" clip-rule="evenodd" d="M308.74 25.6206C311.113 25.6207 313.395 26.5257 315.115 28.1485C315.245 28.2738 315.452 28.2722 315.579 28.145L316.817 26.9049C316.882 26.8404 316.918 26.7529 316.918 26.662C316.917 26.571 316.88 26.484 316.815 26.4202C312.3 22.1265 305.178 22.1265 300.664 26.4202C300.599 26.484 300.562 26.5709 300.561 26.6619C300.56 26.7529 300.596 26.8403 300.661 26.9049L301.899 28.145C302.027 28.2724 302.234 28.274 302.363 28.1485C304.084 26.5256 306.366 25.6206 308.74 25.6206ZM308.738 29.7627C310.033 29.7626 311.282 30.2649 312.242 31.1719C312.372 31.3006 312.577 31.2978 312.703 31.1656L313.931 29.8707C313.996 29.8028 314.032 29.7107 314.031 29.6149C314.03 29.5192 313.993 29.4278 313.927 29.3613C311.003 26.524 306.476 26.524 303.552 29.3613C303.486 29.4278 303.448 29.5192 303.447 29.615C303.447 29.7108 303.483 29.8029 303.547 29.8707L304.775 31.1656C304.902 31.2978 305.107 31.3006 305.236 31.1719C306.196 30.2655 307.444 29.7632 308.738 29.7627ZM311.145 32.5045C311.146 32.6079 311.111 32.7076 311.047 32.78L308.97 35.1893C308.909 35.2601 308.826 35.2999 308.739 35.2999C308.653 35.2999 308.57 35.2601 308.509 35.1893L306.432 32.78C306.367 32.7075 306.332 32.6078 306.334 32.5044C306.336 32.401 306.375 32.3031 306.442 32.2338C307.768 30.9442 309.711 30.9442 311.037 32.2338C311.104 32.3032 311.143 32.4011 311.145 32.5045Z" fill="black"/>
<path fill-rule="evenodd" clip-rule="evenodd" d="M293.405 24.225C293.405 23.6037 292.949 23.1 292.387 23.1H291.369C290.807 23.1 290.351 23.6037 290.351 24.225V33.975C290.351 34.5963 290.807 35.1 291.369 35.1H292.387C292.949 35.1 293.405 34.5963 293.405 33.975V24.225ZM286.312 25.5H287.33C287.892 25.5 288.347 26.0157 288.347 26.652V33.948C288.347 34.5842 287.892 35.1 287.33 35.1H286.312C285.75 35.1 285.294 34.5842 285.294 33.948V26.652C285.294 26.0157 285.75 25.5 286.312 25.5ZM282.177 28.1H281.159C280.597 28.1 280.141 28.6223 280.141 29.2666V33.9333C280.141 34.5776 280.597 35.1 281.159 35.1H282.177C282.739 35.1 283.195 34.5776 283.195 33.9333V29.2666C283.195 28.6223 282.739 28.1 282.177 28.1ZM277.12 30.5H276.102C275.54 30.5 275.084 31.0148 275.084 31.65V33.95C275.084 34.5851 275.54 35.1 276.102 35.1H277.12C277.682 35.1 278.137 34.5851 278.137 33.95V31.65C278.137 31.0148 277.682 30.5 277.12 30.5Z" fill="black"/>
<path d="M83.8291 35.7988C82.8773 35.7988 82.061 35.5443 81.3804 35.0352C80.7052 34.526 80.1851 33.8011 79.8198 32.8604C79.4546 31.9196 79.272 30.8045 79.272 29.5151V29.4985C79.272 28.2091 79.4546 27.0968 79.8198 26.1616C80.1851 25.2209 80.7052 24.4959 81.3804 23.9868C82.061 23.4777 82.8773 23.2231 83.8291 23.2231C84.7809 23.2231 85.5972 23.4777 86.2778 23.9868C86.9585 24.4959 87.4814 25.2209 87.8467 26.1616C88.2119 27.0968 88.3945 28.2091 88.3945 29.4985V29.5151C88.3945 30.8045 88.2119 31.9196 87.8467 32.8604C87.4814 33.8011 86.9585 34.526 86.2778 35.0352C85.5972 35.5443 84.7809 35.7988 83.8291 35.7988ZM83.8291 34.064C84.3382 34.064 84.7726 33.8813 85.1323 33.5161C85.492 33.1509 85.766 32.6307 85.9541 31.9556C86.1478 31.2749 86.2446 30.4614 86.2446 29.5151V29.4985C86.2446 28.5522 86.1478 27.7415 85.9541 27.0664C85.766 26.3857 85.492 25.8656 85.1323 25.5059C84.7726 25.1406 84.3382 24.958 83.8291 24.958C83.32 24.958 82.8856 25.1406 82.5259 25.5059C82.1717 25.8656 81.8978 26.3857 81.7041 27.0664C81.516 27.7415 81.4219 28.5522 81.4219 29.4985V29.5151C81.4219 30.4614 81.516 31.2749 81.7041 31.9556C81.8978 32.6307 82.1717 33.1509 82.5259 33.5161C82.8856 33.8813 83.32 34.064 83.8291 34.064Z" fill="black"/>
<path d="M68.7549 35.5V34.0557L72.6812 30.0381C73.2235 29.4902 73.644 29.0392 73.9429 28.6851C74.2472 28.3254 74.4603 28.0099 74.582 27.7388C74.7038 27.4621 74.7646 27.1715 74.7646 26.8672V26.8423C74.7646 26.4771 74.6844 26.1506 74.5239 25.8628C74.3634 25.575 74.1338 25.3509 73.835 25.1904C73.5361 25.0244 73.1792 24.9414 72.7642 24.9414C72.3436 24.9414 71.9728 25.0299 71.6519 25.207C71.3309 25.3786 71.0819 25.6193 70.9048 25.9292C70.7277 26.2391 70.6392 26.6016 70.6392 27.0166L70.6309 27.0498L68.6387 27.0415L68.6304 27.0166C68.6304 26.2695 68.8102 25.611 69.1699 25.041C69.5296 24.471 70.0277 24.0256 70.6641 23.7046C71.3005 23.3836 72.0365 23.2231 72.8721 23.2231C73.6468 23.2231 74.3358 23.3698 74.939 23.6631C75.5477 23.9564 76.0236 24.3604 76.3667 24.875C76.7098 25.3896 76.8813 25.9845 76.8813 26.6597V26.6846C76.8813 27.1328 76.7956 27.5728 76.624 28.0044C76.4525 28.4305 76.1592 28.8981 75.7441 29.4072C75.3346 29.9163 74.7674 30.5223 74.0425 31.2251L71.0791 34.1055L71.6436 33.1592V34.1055L71.0791 33.7319H77.064V35.5H68.7549Z" fill="black"/>
<path d="M64.646 33.8896C64.2697 33.8896 63.9543 33.7651 63.6997 33.5161C63.4507 33.2616 63.3262 32.9517 63.3262 32.5864C63.3262 32.2157 63.4507 31.9058 63.6997 31.6567C63.9543 31.4022 64.2697 31.2749 64.646 31.2749C65.0278 31.2749 65.3433 31.4022 65.5923 31.6567C65.8413 31.9058 65.9658 32.2157 65.9658 32.5864C65.9658 32.9517 65.8413 33.2616 65.5923 33.5161C65.3433 33.7651 65.0278 33.8896 64.646 33.8896ZM64.646 27.7305C64.2697 27.7305 63.9543 27.606 63.6997 27.3569C63.4507 27.1024 63.3262 26.7925 63.3262 26.4272C63.3262 26.0565 63.4507 25.7466 63.6997 25.4976C63.9543 25.243 64.2697 25.1157 64.646 25.1157C65.0278 25.1157 65.3433 25.243 65.5923 25.4976C65.8413 25.7466 65.9658 26.0565 65.9658 26.4272C65.9658 26.7925 65.8413 27.1024 65.5923 27.3569C65.3433 27.606 65.0278 27.7305 64.646 27.7305Z" fill="black"/>
<path d="M56.3369 35.7988C55.7005 35.7988 55.0946 35.6826 54.519 35.4502C53.9435 35.2122 53.4316 34.847 52.9834 34.3545C52.5407 33.8564 52.1921 33.2228 51.9375 32.4536C51.6829 31.6789 51.5557 30.7492 51.5557 29.6646V29.6479C51.5557 28.3032 51.7493 27.1522 52.1367 26.1948C52.5241 25.2319 53.0775 24.4959 53.7969 23.9868C54.5218 23.4777 55.3851 23.2231 56.3867 23.2231C57.1172 23.2231 57.7785 23.3587 58.3706 23.6299C58.9627 23.8955 59.4525 24.2635 59.8398 24.7339C60.2272 25.2043 60.4845 25.7466 60.6118 26.3608L60.6284 26.4521H58.5283L58.4951 26.3691C58.39 26.0869 58.2378 25.8434 58.0386 25.6387C57.8449 25.4284 57.6069 25.2679 57.3247 25.1572C57.048 25.041 56.7354 24.9829 56.3867 24.9829C55.7503 24.9829 55.2301 25.1711 54.8262 25.5474C54.4277 25.9181 54.1289 26.4162 53.9297 27.0415C53.736 27.6668 53.6226 28.3641 53.5894 29.1333C53.5838 29.2108 53.5811 29.291 53.5811 29.374C53.5811 29.4515 53.5811 29.5317 53.5811 29.6147L53.9546 31.6152C53.9546 32.069 54.0597 32.4813 54.27 32.8521C54.4803 33.2228 54.7653 33.5161 55.125 33.7319C55.4847 33.9478 55.8831 34.0557 56.3203 34.0557C56.763 34.0557 57.1642 33.9505 57.5239 33.7402C57.8836 33.5244 58.1686 33.2367 58.3789 32.877C58.5892 32.5117 58.6943 32.1077 58.6943 31.665V31.6484C58.6943 31.1836 58.592 30.7741 58.3872 30.4199C58.188 30.0602 57.9113 29.778 57.5571 29.5732C57.203 29.3685 56.799 29.2661 56.3452 29.2661C55.897 29.2661 55.4902 29.3657 55.125 29.5649C54.7653 29.7642 54.4803 30.0409 54.27 30.395C54.0597 30.7492 53.9546 31.1504 53.9546 31.5986V31.6152H53.4565V29.4072H53.7471C53.8965 29.0918 54.1095 28.7985 54.3862 28.5273C54.6685 28.2562 55.0171 28.0376 55.4321 27.8716C55.8472 27.7056 56.3258 27.6226 56.8682 27.6226C57.6374 27.6226 58.3153 27.7941 58.9019 28.1372C59.494 28.4803 59.9561 28.9507 60.2881 29.5483C60.6201 30.1405 60.7861 30.8156 60.7861 31.5737V31.5903C60.7861 32.4038 60.5952 33.126 60.2134 33.7568C59.8315 34.3877 59.3058 34.8857 58.6362 35.251C57.9722 35.6162 57.2057 35.7988 56.3369 35.7988Z" fill="black"/>
<rect x="112" y="799" width="152" height="5" rx="2.5" fill="#0D0D0D"/>
</svg>
